<?xml version="1.0" encoding="utf-8"?>
<!-- Generator: Adobe Illustrator 27.5.0, SVG Export Plug-In . SVG Version: 6.00 Build 0)  -->
<svg version="1.1" xmlns="http://www.w3.org/2000/svg" xmlns:xlink="http://www.w3.org/1999/xlink" x="0px" y="0px"
	 viewBox="0 0 500 500" style="enable-background:new 0 0 500 500;" xml:space="preserve">
<g id="Floor">
	<g>
		<path id="Floor_1_" style="fill:#FAFAFA;" d="M81.377,457.351c-93.13-44.687-93.131-117.138-0.002-161.824
			s244.121-44.686,337.25,0s93.13,117.137,0.002,161.824C325.499,502.038,174.507,502.038,81.377,457.351z"/>
		<path style="fill:#F5F5F5;" d="M250.002,491.307c-61.146,0-122.292-11.168-168.842-33.505
			c-45.225-21.701-70.132-50.596-70.132-81.364s24.906-59.662,70.13-81.362c93.1-44.672,244.583-44.672,337.683,0
			c45.224,21.7,70.13,50.595,70.131,81.363c0,30.767-24.906,59.663-70.13,81.363C372.293,480.138,311.147,491.307,250.002,491.307z
			 M249.999,262.559c-60.989,0-121.978,11.14-168.408,33.418c-44.858,21.524-69.563,50.099-69.563,80.46
			c0,30.362,24.705,58.937,69.564,80.462c92.863,44.559,243.958,44.559,336.816,0c44.858-21.525,69.563-50.1,69.563-80.461
			c-0.001-30.362-24.705-58.937-69.564-80.461C371.978,273.699,310.988,262.559,249.999,262.559z"/>
	</g>
</g>
<g id="Shadows">
	<ellipse id="Shadow_13_" style="fill:#E6E6E6;" cx="366.755" cy="411.66" rx="60.24" ry="34.779"/>
	<path id="Shadow_32_" style="fill:#E6E6E6;" d="M96.075,439.522L72.519,425.92c-2.849-1.645-2.849-4.312,0-5.956l144.532-83.447
		c2.849-1.645,7.468-1.645,10.317,0l23.558,13.601c2.849,1.645,2.849,4.312,0,5.956l-144.533,83.448
		C103.543,441.167,98.924,441.167,96.075,439.522z"/>
	<path id="Shadow_14_" style="fill:#E6E6E6;" d="M132.724,456.68l-2.535-1.482c-2.849-1.645-2.849-4.312,0-5.957l131.213-75.744
		c2.849-1.645,7.468-1.645,10.317,0l2.537,1.482c2.849,1.645,2.849,4.312,0,5.957L143.041,456.68
		C140.192,458.325,135.573,458.325,132.724,456.68z"/>
</g>
<g id="Plants">
	<g id="Plants_4_">
		<g id="XMLID_808_">
			<g id="XMLID_817_">
				<path id="XMLID_818_" style="fill:#BA68C8;" d="M77.973,432.356l9.726-5.62c0,0,5.789-24.053,3.482-45.697
					c-3.243-30.43-23.274-41.88-30.89-39.255c-7.616,2.624-9.822,11.479,2.78,29.602C70.507,382.079,79.641,404.352,77.973,432.356z
					"/>
			</g>
			<g id="XMLID_815_" style="opacity:0.3;">
				<path id="XMLID_816_" style="fill:#FFFFFF;" d="M77.973,432.356l9.726-5.62c0,0,5.789-24.053,3.482-45.697
					c-3.243-30.43-23.274-41.88-30.89-39.255c-7.616,2.624-9.822,11.479,2.78,29.602C70.507,382.079,79.641,404.352,77.973,432.356z
					"/>
			</g>
			<g id="XMLID_810_">
				<path id="XMLID_811_" style="fill:#FFFFFF;" d="M82.004,420.539c-0.032-0.002-0.062-0.006-0.093-0.012
					c-0.366-0.07-0.607-0.422-0.537-0.788c5.331-28.067-4.473-59.606-16.614-72.729c-0.253-0.273-0.237-0.701,0.037-0.953
					c0.274-0.25,0.701-0.236,0.953,0.038c12.363,13.363,22.359,45.417,16.949,73.897C82.636,420.326,82.334,420.556,82.004,420.539z
					"/>
			</g>
		</g>
		<g id="XMLID_770_">
			<g id="XMLID_805_">
				<path id="XMLID_807_" style="fill:#BA68C8;" d="M53.495,446.489c-1.452,0.74-5.317-2.568-6.394-3.372
					c-1.844-1.377-3.299-3.268-4.222-5.371c-1.075-2.447-1.247-5.02-0.74-7.641c0.263-1.36,0.714-2.675,1.163-3.985
					c0.441-1.286,0.882-2.572,1.323-3.858c0.435-1.269,0.876-2.582,0.773-3.92c-0.207-2.695-2.49-4.69-4.568-6.417
					c-2.299-1.909-4.668-4.397-4.492-7.619c0.136-2.486,1.54-4.731,3.18-6.606c1.64-1.874,3.556-3.506,5.052-5.496
					c1.077-1.433,1.948-3.136,1.875-4.927c-0.046-1.113-0.452-2.18-0.933-3.184c-1.032-2.156-2.437-4.154-3.108-6.448
					c-0.671-2.294-0.418-5.093,1.423-6.618c1.511-1.252,3.667-1.328,5.616-1.1c1.803,0.211,3.529,1.116,5.067,2.076
					c4.974,3.103,7.589,9.311,12.908,11.775c2.052,0.95,4.337,1.251,6.492,1.938c2.154,0.687,4.324,1.914,5.233,3.985
					c1.793,4.082-2.154,8.802-0.966,13.099c1.051,3.803,4.613,5.417,6.484,8.891c0.818,1.519,0.938,3.234,0.708,4.944
					c-0.391,2.895-0.924,5.007-2.482,8.169c-1.288,2.614-4.913,7.553-4.913,7.553S53.717,446.375,53.495,446.489z"/>
			</g>
			<g id="XMLID_803_" style="opacity:0.65;">
				<path id="XMLID_804_" style="fill:#FFFFFF;" d="M53.495,446.489c-1.452,0.74-5.317-2.568-6.394-3.372
					c-1.844-1.377-3.299-3.268-4.222-5.371c-1.075-2.447-1.247-5.02-0.74-7.641c0.263-1.36,0.714-2.675,1.163-3.985
					c0.441-1.286,0.882-2.572,1.323-3.858c0.435-1.269,0.876-2.582,0.773-3.92c-0.207-2.695-2.49-4.69-4.568-6.417
					c-2.299-1.909-4.668-4.397-4.492-7.619c0.136-2.486,1.54-4.731,3.18-6.606c1.64-1.874,3.556-3.506,5.052-5.496
					c1.077-1.433,1.948-3.136,1.875-4.927c-0.046-1.113-0.452-2.18-0.933-3.184c-1.032-2.156-2.437-4.154-3.108-6.448
					c-0.671-2.294-0.418-5.093,1.423-6.618c1.511-1.252,3.667-1.328,5.616-1.1c1.803,0.211,3.529,1.116,5.067,2.076
					c4.974,3.103,7.589,9.311,12.908,11.775c2.052,0.95,4.337,1.251,6.492,1.938c2.154,0.687,4.324,1.914,5.233,3.985
					c1.793,4.082-2.154,8.802-0.966,13.099c1.051,3.803,4.613,5.417,6.484,8.891c0.818,1.519,0.938,3.234,0.708,4.944
					c-0.391,2.895-0.924,5.007-2.482,8.169c-1.288,2.614-4.913,7.553-4.913,7.553S53.717,446.375,53.495,446.489z"/>
			</g>
			<g id="XMLID_801_">
				<path id="XMLID_802_" style="fill:#FFFFFF;" d="M67.573,439.151c-0.009,0-0.017-0.001-0.017-0.001
					c-0.36-0.033-0.618-0.345-0.587-0.695c2.329-25.245-8.182-53.774-16.441-62.325c-0.244-0.253-0.238-0.657,0.016-0.903
					c0.254-0.244,0.657-0.236,0.903,0.016c8.424,8.723,19.155,37.729,16.794,63.329C68.209,438.915,67.913,439.168,67.573,439.151z"
					/>
			</g>
			<g id="XMLID_779_">
				<path id="XMLID_781_" style="fill:#FFFFFF;" d="M65.066,408.024c-0.062-0.003-0.125-0.015-0.187-0.038
					c-8.001-2.922-18.108-3.876-18.209-3.885c-0.351-0.033-0.609-0.344-0.577-0.694c0.033-0.35,0.313-0.614,0.694-0.578
					c0.103,0.01,10.371,0.978,18.53,3.959c0.331,0.12,0.502,0.487,0.38,0.818C65.598,407.875,65.338,408.038,65.066,408.024z"/>
			</g>
		</g>
	</g>
</g>
<g id="Paper_Planes_1_">
	<g id="Paper_Planes">
		<g id="Paper_Plane_1_">
			<g id="XMLID_16655_">
				<polygon id="XMLID_16653_" style="fill:#BA68C8;" points="72.309,78.072 106.769,63.081 81.408,85.093 				"/>
				<polygon id="XMLID_988_" style="opacity:0.3;fill:#FFFFFF;" points="72.309,78.072 106.769,63.081 81.408,85.093 				"/>
				<polygon id="XMLID_16654_" style="fill:#BA68C8;" points="106.769,63.081 69.045,73.619 59.947,66.598 				"/>
				<polygon id="XMLID_989_" style="opacity:0.3;fill:#FFFFFF;" points="106.769,63.081 69.045,73.619 59.947,66.598 				"/>
				<polygon id="XMLID_16619_" style="fill:#BA68C8;" points="69.045,73.619 70.085,83.124 72.309,78.072 106.769,63.081 				"/>
				<polygon id="XMLID_985_" style="opacity:0.2;" points="69.045,73.619 70.085,83.124 72.309,78.072 106.769,63.081 				"/>
				<polygon id="XMLID_16671_" style="fill:#BA68C8;" points="70.085,83.124 75.342,80.412 72.309,78.072 				"/>
				<polygon id="XMLID_943_" style="opacity:0.2;" points="72.309,78.072 75.342,80.412 74.503,80.844 				"/>
			</g>
			<g id="XMLID_935_">
				<g>
					<path style="fill:#E0E0E0;" d="M61.935,84.999c-0.168-0.021-0.328-0.109-0.435-0.257c-0.207-0.284-0.145-0.682,0.139-0.888
						c0.723-0.527,1.446-1.014,2.147-1.449c0.297-0.183,0.69-0.094,0.875,0.206c0.185,0.299,0.093,0.691-0.206,0.875
						c-0.675,0.418-1.37,0.887-2.067,1.395C62.251,84.981,62.09,85.018,61.935,84.999z"/>
				</g>
				<g>
					<path style="fill:#E0E0E0;" d="M100.125,163.077c-1.247-0.156-2.473-0.328-3.676-0.519c-0.347-0.055-0.583-0.381-0.529-0.728
						c0.056-0.346,0.35-0.557,0.728-0.529c1.605,0.254,3.249,0.477,4.933,0.668c0.002,0,0.005,0.001,0.007,0.001
						c0.345,0.043,0.593,0.356,0.553,0.703c-0.04,0.349-0.354,0.6-0.704,0.56C100.998,163.182,100.559,163.131,100.125,163.077z
						 M105.582,163.623c-0.334-0.041-0.581-0.34-0.554-0.68c0.027-0.35,0.332-0.612,0.682-0.585
						c1.625,0.124,3.298,0.218,4.973,0.279c0.347,0.033,0.625,0.308,0.613,0.659c-0.013,0.351-0.308,0.625-0.659,0.613
						c-1.692-0.062-3.383-0.157-5.024-0.283C105.602,163.625,105.592,163.624,105.582,163.623z M92.365,161.826
						c-0.016-0.002-0.031-0.004-0.047-0.008c-1.652-0.329-3.304-0.704-4.913-1.113c-0.341-0.087-0.546-0.433-0.46-0.773
						c0.087-0.341,0.433-0.539,0.773-0.46c1.587,0.404,3.217,0.773,4.847,1.099c0.345,0.069,0.568,0.404,0.499,0.747
						C93,161.648,92.691,161.866,92.365,161.826z M114.751,163.989c-0.315-0.039-0.559-0.308-0.556-0.634
						c0.002-0.35,0.288-0.634,0.639-0.632c1.631,0.008,3.308-0.014,4.983-0.065c0.343-0.017,0.643,0.265,0.655,0.617
						c0.01,0.351-0.266,0.644-0.617,0.655c-1.69,0.051-3.381,0.072-5.028,0.065C114.802,163.995,114.776,163.992,114.751,163.989z
						 M83.467,159.602c-0.036-0.004-0.072-0.012-0.107-0.023c-1.633-0.496-3.241-1.037-4.78-1.604
						c-0.329-0.121-0.498-0.487-0.376-0.817c0.122-0.328,0.49-0.494,0.817-0.376c1.515,0.559,3.1,1.091,4.708,1.581
						c0.336,0.102,0.526,0.458,0.424,0.793C84.061,159.456,83.768,159.639,83.467,159.602z M74.848,156.464
						c-0.058-0.007-0.116-0.023-0.172-0.046c-1.559-0.669-3.096-1.392-4.569-2.147c-0.312-0.16-0.436-0.543-0.275-0.856
						c0.158-0.312,0.541-0.44,0.856-0.275c1.447,0.741,2.958,1.451,4.49,2.109c0.323,0.139,0.473,0.513,0.334,0.835
						C75.396,156.35,75.121,156.498,74.848,156.464z M66.667,152.324c-0.084-0.011-0.168-0.038-0.245-0.084
						c-1.466-0.868-2.896-1.788-4.248-2.738c-0.287-0.202-0.357-0.598-0.155-0.886c0.202-0.286,0.598-0.355,0.886-0.155
						c1.324,0.93,2.726,1.833,4.164,2.684c0.302,0.178,0.402,0.569,0.224,0.871C67.159,152.241,66.91,152.354,66.667,152.324z
						 M59.132,147.098c-0.114-0.014-0.226-0.06-0.322-0.138c-1.326-1.08-2.597-2.213-3.777-3.37
						c-0.25-0.245-0.254-0.648-0.009-0.899c0.245-0.249,0.646-0.256,0.899-0.009c1.152,1.129,2.393,2.236,3.69,3.291
						c0.272,0.221,0.313,0.622,0.091,0.895C59.561,147.045,59.342,147.124,59.132,147.098z M52.544,140.728
						c-0.152-0.019-0.296-0.092-0.403-0.215c-1.12-1.299-2.163-2.65-3.098-4.018c-0.198-0.289-0.124-0.686,0.166-0.884
						c0.289-0.197,0.684-0.126,0.884,0.166c0.909,1.329,1.922,2.642,3.012,3.905c0.229,0.266,0.2,0.668-0.066,0.897
						C52.896,140.701,52.716,140.75,52.544,140.728z M47.313,133.21c-0.197-0.025-0.38-0.14-0.482-0.327
						c-0.824-1.52-1.535-3.078-2.114-4.632c-0.122-0.328,0.045-0.695,0.375-0.818c0.33-0.122,0.695,0.046,0.818,0.375
						c0.557,1.497,1.243,3.001,2.039,4.468c0.168,0.309,0.053,0.695-0.255,0.863C47.572,133.204,47.44,133.226,47.313,133.21z
						 M44.042,124.667c-0.259-0.032-0.482-0.222-0.542-0.492c-0.285-1.27-0.484-2.543-0.59-3.784
						c-0.037-0.43-0.065-0.857-0.084-1.283c-0.015-0.351,0.258-0.648,0.608-0.663c0.343-0.015,0.647,0.257,0.663,0.608
						c0.017,0.408,0.044,0.818,0.08,1.23c0.101,1.184,0.29,2.399,0.564,3.614c0.077,0.343-0.139,0.682-0.481,0.76
						C44.187,124.673,44.113,124.676,44.042,124.667z M43.474,115.545c-0.339-0.042-0.586-0.345-0.555-0.687
						c0.036-0.405,0.079-0.808,0.129-1.208c0.157-1.263,0.391-2.548,0.695-3.819c0.083-0.342,0.437-0.548,0.767-0.47
						c0.342,0.082,0.552,0.425,0.47,0.767c-0.294,1.225-0.519,2.463-0.67,3.679c-0.048,0.386-0.089,0.774-0.123,1.164
						c-0.031,0.35-0.34,0.609-0.69,0.577C43.488,115.547,43.481,115.546,43.474,115.545z M45.487,106.617
						c-0.047-0.006-0.094-0.016-0.139-0.033c-0.33-0.12-0.5-0.485-0.381-0.815c0.566-1.557,1.248-3.124,2.027-4.657
						c0.158-0.313,0.541-0.439,0.854-0.279c0.313,0.158,0.438,0.541,0.279,0.854c-0.755,1.489-1.416,3.008-1.964,4.516
						C46.059,106.488,45.775,106.653,45.487,106.617z M49.543,98.403c-0.09-0.011-0.18-0.042-0.261-0.093
						c-0.298-0.187-0.386-0.58-0.199-0.877c0.889-1.41,1.87-2.804,2.917-4.145c0.216-0.276,0.615-0.326,0.893-0.11
						c0.277,0.216,0.326,0.616,0.11,0.893c-1.021,1.307-1.978,2.666-2.844,4.04C50.023,98.326,49.78,98.432,49.543,98.403z
						 M55.124,91.13c-0.127-0.016-0.25-0.069-0.351-0.163c-0.259-0.237-0.276-0.64-0.038-0.898c1.153-1.253,2.368-2.45,3.614-3.556
						c0.263-0.232,0.664-0.21,0.898,0.054c0.233,0.263,0.209,0.665-0.054,0.898c-1.214,1.077-2.399,2.243-3.523,3.465
						C55.526,91.087,55.321,91.154,55.124,91.13z"/>
				</g>
				<g>
					<path style="fill:#E0E0E0;" d="M123.985,163.735c-0.298-0.037-0.537-0.282-0.556-0.593c-0.021-0.351,0.247-0.652,0.597-0.673
						c0.835-0.049,1.679-0.106,2.528-0.171c0.349-0.026,0.656,0.236,0.683,0.587c0.026,0.35-0.236,0.655-0.587,0.683
						c-0.857,0.064-1.706,0.122-2.549,0.172C124.063,163.741,124.024,163.74,123.985,163.735z"/>
				</g>
			</g>
		</g>
		<g id="Paper_Plane">
			<polygon id="XMLID_16609_" style="fill:#BA68C8;" points="422.304,327.047 457.068,309.741 471.245,316.012 			"/>
			<polygon id="XMLID_986_" style="opacity:0.3;fill:#FFFFFF;" points="422.304,327.047 457.068,309.741 471.245,316.012 			"/>
			<polygon id="XMLID_16612_" style="fill:#BA68C8;" points="422.304,327.047 452.832,306.584 447.217,298.514 			"/>
			<polygon id="XMLID_987_" style="opacity:0.3;fill:#FFFFFF;" points="422.304,327.047 452.832,306.584 447.217,298.514 			"/>
			<polygon id="XMLID_934_" style="fill:#BA68C8;" points="452.832,306.584 452.24,312.156 422.304,327.047 			"/>
			<polygon id="XMLID_929_" style="opacity:0.2;" points="452.832,306.584 452.24,312.156 422.304,327.047 			"/>
			<g id="XMLID_927_">
				<path style="fill:#E0E0E0;" d="M458.939,304.541c-0.158,0-0.317-0.058-0.44-0.177c-0.254-0.242-0.263-0.645-0.019-0.899
					c1.132-1.183,2.168-2.491,3.076-3.891c0.19-0.294,0.585-0.379,0.879-0.187c0.295,0.191,0.379,0.585,0.187,0.879
					c-0.952,1.466-2.037,2.839-3.225,4.078C459.273,304.476,459.107,304.541,458.939,304.541z M464.127,296.843
					c-0.089,0-0.179-0.019-0.265-0.057c-0.319-0.146-0.46-0.524-0.314-0.843c0.682-1.489,1.249-3.064,1.684-4.683
					c0.091-0.338,0.436-0.544,0.779-0.448c0.339,0.091,0.54,0.44,0.448,0.779c-0.454,1.685-1.044,3.328-1.755,4.881
					C464.598,296.705,464.367,296.843,464.127,296.843z M466.675,287.905c-0.028,0-0.056-0.002-0.084-0.005
					c-0.349-0.046-0.593-0.366-0.547-0.714c0.187-1.407,0.281-2.852,0.281-4.296c0-0.227-0.003-0.455-0.007-0.683
					c-0.007-0.352,0.272-0.641,0.623-0.649c0.005,0,0.009,0,0.013,0c0.345,0,0.629,0.277,0.636,0.623
					c0.005,0.237,0.007,0.473,0.007,0.709c0,1.499-0.098,3.001-0.292,4.463C467.262,287.672,466.989,287.905,466.675,287.905z
					 M466.605,278.606c-0.311,0-0.583-0.229-0.628-0.545c-0.236-1.633-0.595-3.273-1.069-4.875c-0.1-0.337,0.093-0.69,0.429-0.79
					c0.339-0.1,0.691,0.092,0.79,0.429c0.491,1.66,0.863,3.36,1.108,5.054c0.05,0.348-0.191,0.67-0.539,0.72
					C466.666,278.605,466.636,278.606,466.605,278.606z M464.078,269.658c-0.246,0-0.481-0.144-0.584-0.385
					c-0.652-1.518-1.421-3.012-2.285-4.442c-0.181-0.3-0.085-0.691,0.216-0.873c0.301-0.181,0.691-0.085,0.873,0.216
					c0.894,1.48,1.69,3.026,2.365,4.598c0.139,0.322-0.01,0.697-0.333,0.835C464.247,269.641,464.162,269.658,464.078,269.658z
					 M459.362,261.64c-0.191,0-0.379-0.085-0.504-0.249c-1.001-1.304-2.109-2.57-3.295-3.763c-0.247-0.249-0.245-0.651,0.004-0.9
					c0.249-0.249,0.651-0.245,0.9,0.004c1.223,1.231,2.366,2.538,3.4,3.885c0.214,0.278,0.161,0.677-0.117,0.891
					C459.634,261.597,459.497,261.64,459.362,261.64z M452.881,254.963c-0.143,0-0.285-0.047-0.404-0.144
					c-0.771-0.633-1.575-1.25-2.391-1.833c-0.54-0.387-1.093-0.764-1.655-1.134c-0.293-0.192-0.376-0.587-0.182-0.88
					c0.193-0.293,0.586-0.379,0.88-0.182c0.577,0.379,1.142,0.766,1.696,1.162c0.839,0.6,1.666,1.234,2.458,1.885
					c0.271,0.223,0.311,0.624,0.088,0.895C453.247,254.884,453.064,254.963,452.881,254.963z M445.149,249.771
					c-0.104,0-0.209-0.025-0.306-0.079c-1.426-0.787-2.942-1.544-4.505-2.247c-0.32-0.144-0.463-0.521-0.319-0.841
					c0.146-0.321,0.522-0.461,0.841-0.319c1.595,0.718,3.141,1.49,4.598,2.293c0.307,0.17,0.419,0.557,0.25,0.865
					C445.59,249.653,445.373,249.771,445.149,249.771z M436.682,245.878c-0.075,0-0.152-0.013-0.226-0.042
					c-1.541-0.586-3.147-1.137-4.773-1.638c-0.336-0.104-0.524-0.46-0.421-0.795c0.103-0.337,0.462-0.52,0.795-0.421
					c1.653,0.509,3.284,1.07,4.85,1.666c0.329,0.125,0.493,0.492,0.368,0.82C437.18,245.723,436.939,245.878,436.682,245.878z
					 M427.789,243.079c-0.052,0-0.105-0.006-0.158-0.019c-1.595-0.409-3.253-0.786-4.931-1.119c-0.344-0.068-0.568-0.404-0.5-0.748
					c0.068-0.345,0.407-0.57,0.748-0.5c1.7,0.338,3.383,0.72,4.999,1.134c0.34,0.088,0.545,0.434,0.458,0.775
					C428.332,242.888,428.073,243.079,427.789,243.079z M376.564,242.97c-0.283,0-0.541-0.19-0.616-0.477
					c-0.088-0.34,0.117-0.687,0.456-0.775c1.621-0.419,3.301-0.801,4.995-1.134c0.347-0.068,0.679,0.156,0.747,0.501
					c0.068,0.345-0.156,0.679-0.501,0.747c-1.67,0.329-3.326,0.704-4.923,1.117C376.669,242.963,376.616,242.97,376.564,242.97z
					 M418.647,241.215c-0.032,0-0.066-0.002-0.099-0.007c-1.636-0.255-3.324-0.476-5.017-0.656c-0.349-0.037-0.602-0.351-0.565-0.7
					c0.036-0.349,0.361-0.609,0.7-0.565c1.712,0.182,3.421,0.405,5.078,0.664c0.347,0.054,0.584,0.38,0.53,0.727
					C419.226,240.991,418.956,241.215,418.647,241.215z M385.698,241.119c-0.309,0-0.58-0.226-0.628-0.54
					c-0.053-0.348,0.186-0.672,0.533-0.724c1.663-0.252,3.372-0.466,5.077-0.639c0.341-0.032,0.662,0.22,0.697,0.569
					c0.035,0.349-0.219,0.661-0.569,0.697c-1.684,0.17-3.373,0.382-5.014,0.63C385.761,241.117,385.729,241.119,385.698,241.119z
					 M409.375,240.189c-0.015,0-0.03,0-0.043-0.001c-1.674-0.114-3.375-0.19-5.054-0.227c-0.351-0.007-0.629-0.299-0.622-0.65
					c0.007-0.346,0.291-0.622,0.636-0.622c0.005,0,0.009,0,0.014,0c1.698,0.037,3.419,0.114,5.111,0.229
					c0.351,0.024,0.615,0.328,0.592,0.677C409.986,239.931,409.706,240.189,409.375,240.189z M394.969,240.141
					c-0.333,0-0.613-0.259-0.634-0.597c-0.021-0.351,0.245-0.652,0.596-0.674c1.684-0.104,3.405-0.169,5.112-0.195
					c0.003,0,0.007,0,0.009,0c0.347,0,0.63,0.279,0.636,0.627c0.006,0.351-0.275,0.64-0.626,0.645
					c-1.687,0.026-3.388,0.091-5.053,0.193C394.996,240.141,394.983,240.141,394.969,240.141z"/>
			</g>
		</g>
	</g>
</g>
<g id="Device">
	<g id="Mobile_1_">
		<g>
			<path style="fill:#37474F;" d="M245.826,343.141l-0.001-288.236c0-5.683-2.807-11.911-6.269-13.91
				c-3.462-1.999-10.259-1.316-15.181,1.525L98.371,115.267c-4.922,2.841-8.911,9.752-8.911,15.435v288.237
				c0,5.683,2.807,11.911,6.27,13.91c3.463,1.999,10.26,1.316,15.181-1.525l126.003-72.748
				C241.836,355.734,245.825,351.055,245.826,343.141z"/>
			<path style="fill:#263238;" d="M237.81,346.03l-129.569,74.807l0.041-289.556l-16.212-9.36c-1.612,2.793-2.609,5.94-2.609,8.781
				v288.237c0,5.683,2.807,11.911,6.27,13.91c3.463,1.999,10.26,1.316,15.181-1.525l126.004-72.748
				c3.074-1.775,6.114-4.441,7.715-8.609c0,0-0.501-0.289-0.501-0.289L237.81,346.03z"/>
		</g>
		<path style="fill:#455A64;" d="M236.681,52.268l-126.365,72.96c-3.446,1.985-6.258,6.855-6.258,10.825v285.758
			c0,6.1,4.335,8.596,9.619,5.54l123.004-71.012c3.896-2.253,7.087-7.768,7.087-12.274V56.359
			C243.768,51.854,240.577,50.016,236.681,52.268z"/>
		<g>
			<path d="M237.602,70.825v266.017c0,4.291-3.025,9.539-6.73,11.669l-113.919,65.773c-3.715,2.161-6.73,0.422-6.73-3.879V142.308
				c0-3.478,1.976-7.584,4.723-10.146c0.216-0.196,0.422-0.391,0.638-0.576c0.443-0.35,0.906-0.669,1.369-0.936l32.043-18.501
				c0,0,0.936-0.545,2.089-1.204c1.153-0.669,2.089-0.134,2.089,1.204c0,1.328,0.998,1.842,2.233,1.122l37.342-21.557
				c1.224-0.71,2.233-2.367,2.233-3.694c0-1.245,0.823-2.758,1.873-3.499c0.072-0.051,0.144-0.093,0.216-0.134l31.343-18.09
				l0.669-0.391C233.774,63.2,237.602,65.412,237.602,70.825z"/>
			<path style="fill:#263238;" d="M221.095,340.955c3.704-2.13,6.73-7.378,6.73-11.669V66.637l-30.755,17.75
				c-0.072,0.041-0.144,0.082-0.216,0.134c-1.05,0.741-1.873,2.253-1.873,3.498c0,1.327-1.008,2.984-2.233,3.694l-37.342,21.557
				c-1.235,0.72-2.233,0.206-2.233-1.122c0-1.338-0.936-1.873-2.089-1.204c-1.152,0.659-2.089,1.204-2.089,1.204l-32.043,18.501
				c-0.463,0.268-0.926,0.586-1.369,0.936c-0.216,0.185-0.422,0.381-0.638,0.576c-2.747,2.562-4.723,6.668-4.723,10.146v262.66
				L221.095,340.955z"/>
			<g>
				<path style="fill:#263238;" d="M161.076,101.883L178.194,92c1.021-0.59,1.849-0.171,1.849,0.935
					c0,1.106-0.828,2.481-1.849,3.071l-17.118,9.883c-1.021,0.59-1.849,0.171-1.849-0.935
					C159.227,103.848,160.055,102.473,161.076,101.883z"/>
				<g>
					<path style="fill:#263238;" d="M186.977,86.117c1.15-0.664,2.083-0.126,2.083,1.203c0,1.328-0.933,2.944-2.083,3.608
						c-1.15,0.664-2.083,0.126-2.083-1.203C184.894,88.396,185.827,86.781,186.977,86.117z"/>
				</g>
			</g>
		</g>
		<g>
			<g>
				<path style="fill:#455A64;" d="M101.15,167.309c0-2.239-1.474-4.905-3.293-5.956c-0.878-0.507-1.671-0.539-2.257-0.186
					c-0.414,0.249-2.039,1.155-2.47,1.413c-0.626,0.375-1.016,1.188-1.016,2.338l0,24.863c0,2.239,1.474,4.905,3.293,5.956
					c0.838,0.484,1.599,0.535,2.176,0.232c0.454-0.239,2.116-1.199,2.546-1.456c0.628-0.374,1.021-1.188,1.021-2.341L101.15,167.309
					z"/>
				<path style="fill:#37474F;" d="M98.7,168.722l0,24.863c0,2.239-1.475,3.203-3.294,2.153c-1.819-1.05-3.294-3.717-3.294-5.956
					l0-24.863c0-2.239,1.475-3.203,3.294-2.152C97.225,163.817,98.7,166.483,98.7,168.722z"/>
			</g>
			<g>
				<path style="fill:#455A64;" d="M101.15,210.826c0-2.239-1.474-4.905-3.293-5.955c-0.878-0.507-1.671-0.539-2.257-0.186
					c-0.414,0.249-2.039,1.154-2.47,1.413c-0.626,0.375-1.016,1.188-1.016,2.338l0,24.863c0,2.239,1.474,4.905,3.293,5.956
					c0.838,0.484,1.599,0.535,2.176,0.231c0.454-0.239,2.116-1.199,2.546-1.456c0.628-0.374,1.021-1.188,1.021-2.341L101.15,210.826
					z"/>
				<path style="fill:#37474F;" d="M98.7,212.239l0,24.863c0,2.239-1.475,3.203-3.294,2.152c-1.819-1.05-3.294-3.716-3.294-5.955
					l0-24.863c0-2.239,1.475-3.203,3.294-2.152C97.225,207.334,98.7,210,98.7,212.239z"/>
			</g>
		</g>
	</g>
</g>
<g id="Screen">
	<g id="Window_7_">
		<g>
			<path style="fill:#E0E0E0;" d="M258.338,82.564l-122.655,70.723c-1.526,0.88-2.762,3.02-2.762,4.782v270.643
				c0,1.761,1.239,3.898,2.768,4.772l1.723,0.986c1.529,0.875,4.004,0.87,5.529-0.011l122.657-70.834
				c1.525-0.881,2.761-3.022,2.761-4.783V88.313c0-1.761-1.239-3.898-2.768-4.772l-1.723-0.986
				C262.339,81.68,259.863,81.684,258.338,82.564z"/>
			<g id="XMLID_768_">
				<path style="fill:#FAFAFA;" d="M268.359,359.039c0,2.428-1.704,3.975-3.816,5.189l-120.546,69.605
					c-2.101,1.214-3.817,0.233-3.817-2.206V163.42l0,0c0-2.715,1.448-5.224,3.799-6.582l120.56-69.64
					c1.698-0.981,3.82,0.244,3.82,2.205l0,0V359.039z"/>
			</g>
			<path style="fill:#F0F0F0;" d="M268.361,88.315v1.084c0-1.956-2.126-3.178-3.826-2.2l-120.557,69.643
				c-1.18,0.67-2.126,1.637-2.774,2.774c-0.021,0.032-0.032,0.053-0.043,0.085l-7.462-4.305c0.51-0.882,1.201-1.658,1.988-2.105
				l122.651-70.727c1.53-0.882,4.007-0.882,5.527-0.011l1.722,0.988C267.117,84.414,268.361,86.551,268.361,88.315z"/>
		</g>
		<g>
			<polygon style="fill:#BA68C8;" points="140.179,204.84 268.359,130.835 268.359,104.168 140.179,178.171 			"/>
			<polygon style="opacity:0.5;fill:#FFFFFF;" points="140.179,204.84 268.359,130.835 268.359,104.168 140.179,178.171 			"/>
		</g>
		<g>
			<path style="fill:#BA68C8;" d="M140.179,409.319v22.309c0,2.439,1.716,3.42,3.817,2.206l120.546-69.605
				c2.112-1.214,3.817-2.761,3.817-5.189v-23.725L140.179,409.319z"/>
			<path style="opacity:0.5;fill:#FFFFFF;" d="M140.179,409.319v22.309c0,2.439,1.716,3.42,3.817,2.206l120.546-69.605
				c2.112-1.214,3.817-2.761,3.817-5.189v-23.725L140.179,409.319z"/>
		</g>
		<path id="XMLID_766_" style="fill:#E0E0E0;" d="M265.809,87.916c0.715,0,1.487,0.569,1.487,1.487v269.636
			c0,1.647-1.013,2.963-3.285,4.269l-120.547,69.605c-0.428,0.247-0.832,0.378-1.17,0.378c-0.915,0-1.052-1.042-1.052-1.663V163.42
			c0-2.328,1.252-4.497,3.268-5.662l120.56-69.64C265.304,87.984,265.552,87.916,265.809,87.916 M265.809,86.853
			c-0.424,0-0.859,0.108-1.27,0.345l-120.56,69.64c-2.351,1.358-3.799,3.867-3.799,6.582v268.207c0,1.73,0.863,2.726,2.115,2.726
			c0.513,0,1.091-0.168,1.702-0.52l120.546-69.605c2.112-1.214,3.816-2.761,3.816-5.189V89.403
			C268.359,87.916,267.139,86.853,265.809,86.853L265.809,86.853z"/>
		<g>
			<g id="XMLID_754_">
				<path id="XMLID_760_" style="fill:#455A64;" d="M163.725,158.109c-0.024-0.027-0.037-0.088-0.037-0.182v-0.89l-1.392,0.805
					c-0.076,0.043-0.114,0.003-0.114-0.124v-0.319c0-0.072,0.004-0.131,0.013-0.176c0.009-0.044,0.025-0.101,0.048-0.172l1.48-4.04
					c0.027-0.073,0.05-0.125,0.071-0.157c0.02-0.034,0.052-0.063,0.096-0.088l0.193-0.111c0.059-0.035,0.1-0.036,0.127-0.004
					c0.026,0.031,0.039,0.098,0.039,0.196v3.108l0.307-0.178c0.059-0.033,0.1-0.036,0.123-0.006
					c0.024,0.032,0.035,0.097,0.035,0.195v0.212c0,0.094-0.012,0.167-0.035,0.222c-0.023,0.055-0.064,0.1-0.123,0.134l-0.307,0.178
					v0.89c0,0.094-0.012,0.169-0.037,0.225c-0.025,0.055-0.068,0.102-0.129,0.138l-0.233,0.133
					C163.791,158.133,163.75,158.136,163.725,158.109z M163.779,156.226v-2.216l-1.01,2.8L163.779,156.226z"/>
				<path id="XMLID_755_" style="fill:#455A64;" d="M165.378,156.615c-0.273-0.321-0.409-0.928-0.409-1.817
					c0-0.885,0.137-1.648,0.411-2.287c0.274-0.64,0.658-1.102,1.153-1.387c0.199-0.116,0.385-0.187,0.558-0.213
					c0.173-0.027,0.316-0.007,0.43,0.063c0.026,0.015,0.039,0.042,0.039,0.079c0,0.025-0.005,0.06-0.017,0.103l-0.127,0.464
					c-0.018,0.057-0.035,0.091-0.053,0.102c-0.009,0.005-0.028,0.002-0.057-0.006c-0.199-0.083-0.437-0.045-0.711,0.113
					c-0.334,0.193-0.596,0.511-0.787,0.957c-0.19,0.447-0.285,1.01-0.285,1.692c0,0.688,0.092,1.145,0.277,1.37
					c0.184,0.227,0.437,0.247,0.759,0.061c0.117-0.067,0.231-0.15,0.342-0.248c0.111-0.099,0.202-0.199,0.273-0.301v-1.445
					l-0.58,0.334c-0.059,0.035-0.1,0.036-0.123,0.005c-0.024-0.03-0.036-0.095-0.036-0.194v-0.203c0-0.098,0.012-0.174,0.036-0.227
					c0.023-0.053,0.064-0.096,0.123-0.13l0.926-0.535c0.064-0.037,0.111-0.036,0.138,0.003c0.028,0.038,0.042,0.115,0.042,0.23
					v2.061c0,0.077-0.004,0.139-0.013,0.183c-0.008,0.044-0.028,0.09-0.057,0.139c-0.269,0.457-0.635,0.82-1.098,1.087
					C166.035,156.954,165.65,156.937,165.378,156.615z"/>
			</g>
			<g id="XMLID_617_">
				<g id="XMLID_743_">
					<path id="XMLID_745_" style="fill:#455A64;" d="M177.108,149.515c0,0.687-0.362,1.452-0.808,1.71
						c-0.446,0.257-0.808-0.09-0.808-0.777s0.362-1.452,0.808-1.71C176.747,148.48,177.108,148.828,177.108,149.515z"/>
				</g>
				<g id="XMLID_692_">
					<g id="XMLID_696_">
						<path id="XMLID_741_" style="fill:#455A64;" d="M176.3,146.703c-0.814,0.47-1.521,1.581-1.879,2.82
							c-0.073,0.251-0.036,0.491,0.086,0.567l0.001,0.001c0.153,0.096,0.379-0.103,0.47-0.42c0.25-0.877,0.75-1.661,1.322-1.991
							c0.573-0.331,1.072-0.123,1.322,0.464c0.091,0.214,0.318,0.152,0.471-0.123l0.001-0.002c0.121-0.216,0.157-0.497,0.085-0.664
							C177.822,146.528,177.114,146.233,176.3,146.703z"/>
					</g>
				</g>
				<g id="XMLID_618_">
					<g id="XMLID_621_">
						<path id="XMLID_623_" style="fill:#455A64;" d="M176.3,144.712c-1.21,0.699-2.275,2.287-2.884,4.105
							c-0.09,0.267-0.064,0.537,0.067,0.62l0.002,0.001c0.148,0.094,0.362-0.09,0.463-0.394c0.494-1.486,1.363-2.785,2.352-3.356
							c0.989-0.571,1.861-0.277,2.355,0.639c0.101,0.187,0.315,0.125,0.463-0.14l0,0c0.13-0.233,0.157-0.532,0.067-0.696
							C178.581,144.373,177.513,144.012,176.3,144.712z"/>
					</g>
				</g>
			</g>
			<g>
				<path style="fill:#455A64;" d="M197.403,135.479c-0.025-0.035-0.035-0.084-0.03-0.148c0.006-0.064,0.024-0.124,0.056-0.18
					l1.159-2.077c0.029-0.049,0.058-0.097,0.089-0.145c0.03-0.048,0.063-0.082,0.099-0.103l0.417-0.24
					c0.039-0.023,0.073-0.02,0.102,0.007c0.028,0.027,0.042,0.071,0.042,0.132v5.315c0,0.059-0.014,0.121-0.042,0.18
					c-0.029,0.061-0.063,0.102-0.102,0.124l-0.433,0.25c-0.039,0.023-0.072,0.021-0.101-0.007c-0.028-0.027-0.043-0.071-0.043-0.131
					v-4.064l-0.758,1.351c-0.031,0.056-0.067,0.091-0.104,0.105c-0.037,0.014-0.07,0.003-0.099-0.03L197.403,135.479z"/>
				<path style="fill:#455A64;" d="M200.106,133.917c-0.025-0.034-0.035-0.084-0.029-0.148c0.005-0.063,0.023-0.122,0.055-0.18
					l1.16-2.076c0.028-0.05,0.058-0.098,0.088-0.146c0.03-0.047,0.063-0.081,0.099-0.101l0.416-0.241
					c0.04-0.023,0.073-0.021,0.102,0.007c0.028,0.028,0.043,0.071,0.043,0.131v5.315c0,0.061-0.014,0.12-0.043,0.181
					c-0.029,0.06-0.063,0.102-0.102,0.124l-0.432,0.25c-0.04,0.023-0.073,0.02-0.102-0.007c-0.028-0.027-0.043-0.071-0.043-0.131
					v-4.064l-0.758,1.351c-0.032,0.056-0.067,0.092-0.104,0.105c-0.038,0.014-0.071,0.004-0.099-0.03L200.106,133.917z"/>
				<path style="fill:#455A64;" d="M203.654,131.639c0.039-0.023,0.073-0.02,0.102,0.006c0.028,0.028,0.042,0.072,0.042,0.132v0.807
					c0,0.06-0.014,0.121-0.042,0.181c-0.029,0.061-0.063,0.101-0.102,0.125l-0.497,0.287c-0.039,0.023-0.073,0.021-0.102-0.007
					c-0.028-0.026-0.043-0.071-0.043-0.131v-0.807c0-0.061,0.015-0.121,0.043-0.181c0.029-0.06,0.063-0.101,0.102-0.124
					L203.654,131.639z M203.654,134.518c0.039-0.023,0.073-0.02,0.102,0.007c0.028,0.028,0.042,0.072,0.042,0.132v0.807
					c0,0.06-0.014,0.121-0.042,0.181c-0.029,0.061-0.063,0.101-0.102,0.124l-0.497,0.287c-0.039,0.022-0.073,0.021-0.102-0.007
					c-0.028-0.026-0.043-0.072-0.043-0.131v-0.807c0-0.061,0.015-0.12,0.043-0.182c0.029-0.059,0.063-0.101,0.102-0.124
					L203.654,134.518z"/>
				<path style="fill:#455A64;" d="M206.508,134.121c-0.039,0.022-0.073,0.021-0.102-0.007c-0.028-0.027-0.042-0.072-0.042-0.131
					v-0.996l-1.657,0.956c-0.039,0.023-0.073,0.021-0.101-0.006c-0.029-0.027-0.043-0.072-0.043-0.132v-0.584
					c0-0.077,0.012-0.15,0.035-0.222c0.024-0.072,0.051-0.149,0.083-0.232l1.636-4.088c0.072-0.178,0.145-0.289,0.219-0.332
					l0.407-0.234c0.039-0.023,0.073-0.02,0.102,0.007c0.028,0.027,0.042,0.071,0.042,0.132v3.291l0.46-0.266
					c0.038-0.023,0.073-0.02,0.101,0.007c0.029,0.027,0.042,0.072,0.042,0.132V132c0,0.059-0.014,0.121-0.042,0.181
					c-0.028,0.06-0.063,0.101-0.101,0.124l-0.46,0.266v0.996c0,0.059-0.014,0.12-0.042,0.18c-0.029,0.061-0.063,0.102-0.102,0.125
					L206.508,134.121z M206.364,131.958v-1.761l-0.914,2.288L206.364,131.958z"/>
				<path style="fill:#455A64;" d="M208.655,127.344c0-0.06,0.014-0.12,0.043-0.181c0.028-0.061,0.062-0.101,0.101-0.125
					l2.008-1.159c0.04-0.023,0.073-0.021,0.102,0.007c0.028,0.028,0.043,0.071,0.043,0.132v0.585c0,0.059-0.015,0.12-0.043,0.18
					c-0.029,0.061-0.062,0.102-0.102,0.125l-1.501,0.866l-0.059,1.088c0.096-0.116,0.191-0.207,0.286-0.273
					c0.094-0.065,0.172-0.117,0.232-0.151c0.199-0.115,0.385-0.181,0.555-0.197c0.171-0.017,0.32,0.019,0.444,0.109
					c0.124,0.09,0.223,0.232,0.293,0.428c0.072,0.194,0.107,0.445,0.107,0.753c0,0.351-0.036,0.673-0.109,0.964
					c-0.073,0.292-0.173,0.555-0.3,0.79c-0.126,0.235-0.275,0.439-0.446,0.611c-0.171,0.173-0.353,0.315-0.545,0.426
					c-0.247,0.142-0.457,0.22-0.633,0.234c-0.177,0.014-0.323-0.021-0.439-0.105c-0.116-0.084-0.203-0.206-0.261-0.367
					c-0.059-0.161-0.092-0.346-0.099-0.556c-0.005-0.064,0.009-0.124,0.039-0.183c0.031-0.06,0.065-0.099,0.104-0.122l0.433-0.249
					c0.035-0.021,0.068-0.022,0.096-0.003c0.029,0.02,0.048,0.056,0.059,0.11c0.021,0.115,0.055,0.199,0.101,0.25
					c0.046,0.053,0.1,0.085,0.16,0.097c0.061,0.012,0.129,0.004,0.203-0.023c0.075-0.027,0.153-0.064,0.235-0.112
					c0.203-0.117,0.366-0.296,0.491-0.538s0.187-0.511,0.187-0.807c0-0.247-0.063-0.418-0.187-0.509
					c-0.125-0.093-0.288-0.084-0.491,0.028c-0.107,0.062-0.192,0.123-0.254,0.184c-0.063,0.061-0.113,0.119-0.153,0.174
					c-0.038,0.055-0.074,0.105-0.107,0.148c-0.032,0.044-0.073,0.08-0.123,0.108l-0.492,0.284c-0.039,0.022-0.073,0.021-0.101-0.006
					c-0.029-0.027-0.042-0.072-0.042-0.132L208.655,127.344z"/>
			</g>
			<g>
				<polygon style="fill:#455A64;" points="148.35,167.646 148.35,165.931 149.835,165.074 149.835,166.789 				"/>
				<polygon style="fill:#455A64;" points="150.578,166.36 150.579,162.931 152.064,162.073 152.064,165.503 				"/>
				<polygon style="fill:#455A64;" points="152.807,165.074 152.807,159.93 154.292,159.072 154.292,164.217 				"/>
				<polygon style="fill:#455A64;" points="155.035,163.787 155.035,156.927 156.52,156.07 156.52,162.929 				"/>
			</g>
			<g id="XMLID_370_">
				<path id="XMLID_523_" style="fill:#455A64;" d="M259.341,98c-0.157-0.23-0.352-0.293-0.551-0.178l-5.547,3.19
					c-0.36,0.207-0.641,0.947-0.641,1.684v3.118c0,0.411,0.086,0.764,0.242,0.994c0.067,0.098,0.142,0.167,0.223,0.204
					c0.105,0.047,0.216,0.038,0.328-0.026l5.547-3.189c0.36-0.208,0.642-0.947,0.642-1.686v-3.117
					C259.583,98.583,259.497,98.23,259.341,98z M252.995,106.406c-0.057-0.083-0.089-0.25-0.089-0.456v-3.117
					c0-0.543,0.223-1.131,0.488-1.283l5.547-3.19c0.065-0.037,0.126-0.045,0.176-0.022c0.027,0.012,0.051,0.033,0.072,0.063
					c0.057,0.083,0.089,0.25,0.089,0.455v3.117c0,0.545-0.223,1.132-0.488,1.285l-5.547,3.19
					C253.141,106.507,253.053,106.492,252.995,106.406z"/>
				<g id="XMLID_509_">
					<path style="fill:#455A64;" d="M254.447,101.483v3.688l-0.872,0.5c-0.075,0.042-0.17-0.011-0.17-0.096v-2.742
						c0-0.393,0.17-0.84,0.361-0.957L254.447,101.483z"/>
					<polygon style="fill:#455A64;" points="254.851,101.26 255.893,100.654 255.893,104.342 254.851,104.938 					"/>
					<polygon style="fill:#455A64;" points="256.297,100.431 257.338,99.825 257.338,103.524 256.297,104.119 					"/>
					<path style="fill:#455A64;" d="M258.784,99.24v2.657c0,0.489-0.266,0.946-0.691,1.191l-0.351,0.202v-3.688l0.829-0.478
						C258.667,99.07,258.784,99.134,258.784,99.24z"/>
				</g>
				<g id="XMLID_391_">
					<path id="XMLID_419_" style="fill:#455A64;" d="M259.79,98.895c0.153-0.091,0.278,0.354,0.278,0.994v0.58
						c0,0.64-0.126,1.244-0.282,1.349l-0.282,0.19l0.007-2.949C259.511,99.059,259.636,98.985,259.79,98.895z"/>
				</g>
			</g>
			<polygon style="fill:#455A64;" points="244.178,108.319 249.572,103.532 247.908,110.549 247.122,107.629 			"/>
		</g>
		<g>
			<g>
				<g>
					<g>
						<path style="fill:#FAFAFA;" d="M149.835,190.904c-0.081,0-0.164-0.021-0.237-0.064c-0.146-0.084-0.237-0.241-0.237-0.41
							v-11.017c0-0.169,0.091-0.326,0.237-0.41l13.794-7.965c0.146-0.085,0.328-0.085,0.474,0c0.146,0.084,0.237,0.241,0.237,0.41
							l0.001,11.017c0,0.169-0.091,0.326-0.237,0.41l-13.795,7.965C149.999,190.883,149.917,190.904,149.835,190.904z
							 M150.309,179.687v9.922l12.848-7.418l-0.001-9.922L150.309,179.687z"/>
					</g>
					<g>
						<path style="fill:#FAFAFA;" d="M156.397,183.828c-0.083,0-0.167-0.022-0.244-0.068l-6.562-3.941
							c-0.224-0.135-0.297-0.426-0.162-0.651c0.135-0.223,0.427-0.293,0.651-0.162l6.157,3.698l6.987-11.503
							c0.137-0.223,0.429-0.292,0.652-0.159c0.224,0.136,0.294,0.428,0.159,0.652l-7.233,11.905
							C156.713,183.747,156.556,183.828,156.397,183.828z"/>
					</g>
					<g>
						<path style="fill:#FAFAFA;" d="M149.835,190.904c-0.066,0-0.133-0.014-0.196-0.043c-0.239-0.108-0.343-0.39-0.235-0.627
							l3.943-8.649c0.109-0.239,0.394-0.341,0.628-0.235c0.239,0.108,0.343,0.39,0.235,0.628l-3.944,8.649
							C150.187,190.801,150.015,190.904,149.835,190.904z"/>
					</g>
					<g>
						<path style="fill:#FAFAFA;" d="M163.631,182.939c-0.112,0-0.224-0.04-0.315-0.119l-4.348-3.862
							c-0.195-0.174-0.214-0.474-0.04-0.669c0.173-0.196,0.472-0.213,0.669-0.04l4.348,3.862c0.195,0.174,0.214,0.474,0.04,0.669
							C163.892,182.886,163.761,182.939,163.631,182.939z"/>
					</g>
				</g>
				<g>
					<g>
						<path style="fill:#BA68C8;" d="M163.779,187.397c-1.843,1.064-3.343-0.069-3.343-2.527c0-2.458,1.5-5.323,3.343-6.387
							c1.843-1.064,3.343,0.069,3.343,2.527C167.122,183.467,165.623,186.333,163.779,187.397z"/>
					</g>
					<g>
						<path style="fill:#FFFFFF;" d="M164.14,185.142c-0.031,0.019-0.059,0.017-0.082-0.006c-0.023-0.022-0.034-0.057-0.034-0.106
							v-0.802L162.687,185c-0.031,0.018-0.058,0.016-0.081-0.006c-0.022-0.022-0.034-0.058-0.034-0.106v-0.471
							c0-0.062,0.009-0.122,0.028-0.18c0.019-0.056,0.041-0.119,0.068-0.187l1.318-3.296c0.057-0.143,0.117-0.234,0.177-0.268
							l0.328-0.19c0.031-0.018,0.058-0.015,0.082,0.008c0.022,0.022,0.034,0.056,0.034,0.105v2.653l0.37-0.214
							c0.031-0.018,0.059-0.017,0.081,0.006c0.023,0.022,0.034,0.057,0.034,0.107v0.47c0,0.048-0.011,0.098-0.034,0.146
							c-0.022,0.048-0.05,0.082-0.081,0.1l-0.37,0.214v0.802c0,0.049-0.012,0.098-0.034,0.146c-0.024,0.049-0.051,0.082-0.082,0.1
							L164.14,185.142z M164.023,183.399v-1.42l-0.737,1.845L164.023,183.399z"/>
					</g>
				</g>
				<g>
					<path style="fill:#FAFAFA;" d="M259.813,115.754c-0.685,0.395-1.24,1.357-1.24,2.147c0,0.791,0.555,1.111,1.24,0.716
						c0.685-0.395,1.24-1.357,1.24-2.147C261.052,115.679,260.497,115.358,259.813,115.754z"/>
					<path style="fill:#FAFAFA;" d="M259.813,120.979c-0.685,0.395-1.24,1.357-1.24,2.148c0,0.79,0.555,1.111,1.24,0.716
						c0.685-0.395,1.24-1.357,1.24-2.147C261.052,120.904,260.497,120.584,259.813,120.979z"/>
					<path style="fill:#FAFAFA;" d="M259.813,126.204c-0.685,0.395-1.24,1.357-1.24,2.147s0.555,1.111,1.24,0.716
						c0.685-0.395,1.24-1.357,1.24-2.147C261.052,126.129,260.497,125.809,259.813,126.204z"/>
				</g>
				<path style="fill:#FAFAFA;" d="M253.654,131.395l-3.471-0.667c0.264-0.891,0.416-1.8,0.416-2.669
					c0-1.753-0.601-3.105-1.646-3.709c-0.895-0.516-2.011-0.439-3.144,0.216c-2.38,1.374-4.317,5.055-4.317,8.204
					c0,1.753,0.601,3.105,1.646,3.709c0.391,0.226,0.826,0.339,1.285,0.339c0.589,0,1.222-0.185,1.859-0.553
					c1.498-0.865,2.82-2.645,3.594-4.63l3.598,0.692c0.031,0.006,0.061,0.008,0.091,0.008c0.222,0,0.421-0.157,0.465-0.384
					C254.079,131.693,253.91,131.445,253.654,131.395z M245.809,135.444c-0.838,0.484-1.597,0.559-2.196,0.215
					c-0.745-0.431-1.173-1.483-1.173-2.889c0-2.848,1.724-6.161,3.843-7.384c0.493-0.284,0.959-0.428,1.38-0.428
					c0.295,0,0.569,0.071,0.815,0.213c0.746,0.43,1.173,1.484,1.173,2.888C249.651,130.907,247.927,134.22,245.809,135.444z"/>
				<g>
					<path style="fill:#FAFAFA;" d="M231.558,141.979l-1.187,1.347c-0.098,0.112-0.2,0.044-0.186-0.123l0.169-2.026
						c0.016-0.19,0.064-0.389,0.139-0.575l5.325-13.214c0.443-1.101,1.794-0.203,1.351,0.898l-5.325,13.214
						C231.769,141.686,231.67,141.852,231.558,141.979z"/>
					<g>
						<path style="fill:#FAFAFA;" d="M235.35,135.337v9.022l-7.515,4.34v-13.941l5.203-3.004l0.578-1.431l-6.492,3.753
							c-0.152,0.085-0.237,0.246-0.237,0.408v15.04c0,0.171,0.085,0.322,0.237,0.408c0.066,0.047,0.152,0.066,0.237,0.066
							c0.076,0,0.161-0.019,0.237-0.066l8.463-4.89c0.152-0.085,0.237-0.237,0.237-0.408v-11.647L235.35,135.337z"/>
					</g>
				</g>
			</g>
			<path id="Chat" style="fill:#FFFFFF;" d="M161.722,403.073c-3.274,1.89-5.928,6.487-5.928,10.268c0,1.59,0.473,2.775,1.26,3.483
				l-0.334,2.964c-0.027,0.232,0.261,0.362,0.417,0.187l2.164-2.415c0.74-0.044,1.557-0.299,2.42-0.797
				c3.274-1.89,5.928-6.487,5.928-10.268C167.65,402.715,164.996,401.182,161.722,403.073z"/>
			<path id="Friends" style="fill:#FAFAFA;" d="M244.336,363.143c1.391-0.803,2.52-2.959,2.52-4.814s-1.128-2.708-2.52-1.905
				c-1.392,0.803-2.52,2.959-2.52,4.814C241.816,363.094,242.945,363.946,244.336,363.143z M252.651,358.342
				c1.391-0.803,2.52-2.959,2.52-4.815s-1.128-2.708-2.52-1.905c-1.392,0.803-2.52,2.959-2.52,4.814
				C250.132,358.293,251.26,359.146,252.651,358.342z M257.693,358.755c-0.139-1.085-0.891-1.517-1.767-1.002l-6.542,3.772
				c-0.891,0.515-1.642,1.809-1.768,3.048l-0.19,1.737l10.434-6.024L257.693,358.755z M239.303,369.37l-0.189,1.743l7.391-4.267
				l0.258-2.369c0.06-0.592,0.232-1.176,0.498-1.717l-6.19,3.563C240.178,366.837,239.423,368.134,239.303,369.37z"/>
			<g>
				<g>
					<g>
						<g>
							<path style="fill:#BA68C8;" d="M156.733,225.01c-3.243,1.873-5.882-0.122-5.882-4.446c0-4.325,2.638-9.366,5.882-11.238
								c3.243-1.873,5.882,0.122,5.882,4.447C162.615,218.096,159.976,223.137,156.733,225.01z"/>
						</g>
						<g>
							<path style="fill:#FAFAFA;" d="M160.326,218.562c-0.948,2.398-2.556,4.21-4.299,5.215c-0.588,0.341-1.147,0.512-1.62,0.512
								c-0.559,0-0.986-0.256-1.298-0.654l0.123-1.857c0.085-0.862,0.607-1.763,1.232-2.113l4.539-2.625
								c0.616-0.36,1.137-0.057,1.232,0.692L160.326,218.562z"/>
							<path style="fill:#FAFAFA;" d="M158.619,213.773c0,1.357-0.825,2.933-1.842,3.52c-1.018,0.587-1.842-0.036-1.842-1.393
								c0-1.357,0.825-2.933,1.842-3.52C157.794,211.793,158.619,212.417,158.619,213.773z"/>
						</g>
					</g>
					<g>
						<path style="fill:#E0E0E0;" d="M142.402,239.235c-0.163,0-0.323-0.085-0.41-0.237c-0.132-0.227-0.054-0.516,0.173-0.647
							L265.35,167.23c0.226-0.132,0.517-0.055,0.647,0.173c0.131,0.227,0.054,0.516-0.173,0.647l-123.185,71.122
							C142.564,239.214,142.482,239.235,142.402,239.235z"/>
					</g>
					<g>
						<path style="fill:#455A64;" d="M174.908,201.218l31.888-18.411c0.945-0.546,1.711-0.158,1.711,0.866
							c0,1.023-0.766,2.296-1.711,2.841l-31.888,18.411c-0.945,0.546-1.711,0.158-1.711-0.865S173.963,201.763,174.908,201.218z"/>
						<path style="fill:#E0E0E0;" d="M174.908,208.633l59.28-34.228c0.945-0.546,1.711-0.158,1.711,0.866
							c0,1.023-0.766,2.296-1.711,2.841l-59.28,34.228c-0.945,0.546-1.711,0.158-1.711-0.866
							C173.197,210.451,173.963,209.179,174.908,208.633z"/>
					</g>
					<g>
						<g>
							<path style="fill:#BA68C8;" d="M254.612,165.112c-1.843,1.064-3.343-0.069-3.343-2.527s1.5-5.323,3.343-6.387
								c1.843-1.064,3.343,0.069,3.343,2.527C257.955,161.183,256.456,164.048,254.612,165.112z"/>
						</g>
						<g>
							<path style="fill:#FFFFFF;" d="M254.94,160.276c0.086-0.155,0.141-0.296,0.166-0.42c0.024-0.124,0.036-0.233,0.036-0.326
								c0-0.181-0.035-0.315-0.107-0.4c-0.072-0.083-0.191-0.078-0.357,0.018c-0.158,0.091-0.274,0.217-0.347,0.378
								c-0.073,0.162-0.126,0.345-0.157,0.549c-0.008,0.063-0.026,0.116-0.052,0.159c-0.026,0.044-0.052,0.072-0.077,0.087
								l-0.34,0.197c-0.032,0.018-0.06,0.018-0.084-0.001c-0.024-0.018-0.035-0.056-0.032-0.111
								c0.008-0.204,0.042-0.411,0.099-0.621c0.057-0.21,0.134-0.409,0.23-0.597c0.096-0.189,0.209-0.359,0.339-0.511
								c0.129-0.152,0.268-0.27,0.417-0.357c0.18-0.104,0.338-0.15,0.469-0.135c0.132,0.015,0.242,0.068,0.328,0.163
								c0.087,0.094,0.15,0.217,0.192,0.367c0.042,0.15,0.063,0.313,0.063,0.485c0,0.111-0.004,0.217-0.013,0.322
								c-0.008,0.105-0.029,0.216-0.06,0.333c-0.032,0.118-0.078,0.248-0.138,0.392c-0.061,0.143-0.141,0.306-0.241,0.488
								l-0.798,1.582l1.199-0.691c0.031-0.018,0.058-0.017,0.081,0.006c0.022,0.022,0.034,0.057,0.034,0.106v0.47
								c0,0.049-0.012,0.097-0.034,0.147c-0.023,0.048-0.051,0.081-0.081,0.1l-2.013,1.161c-0.032,0.018-0.058,0.016-0.081-0.006
								c-0.024-0.023-0.035-0.058-0.035-0.106v-0.405c0-0.074,0.015-0.148,0.044-0.22c0.028-0.071,0.053-0.124,0.073-0.158
								L254.94,160.276z"/>
						</g>
					</g>
				</g>
				<g>
					<g>
						<g>
							<path style="fill:#BA68C8;" d="M156.733,251.68c-3.243,1.873-5.882-0.122-5.882-4.446c0-4.325,2.638-9.366,5.882-11.238
								c3.243-1.873,5.882,0.122,5.882,4.447C162.615,244.767,159.976,249.808,156.733,251.68z"/>
						</g>
						<g>
							<path style="fill:#FAFAFA;" d="M160.326,245.232c-0.948,2.398-2.556,4.21-4.299,5.215c-0.588,0.341-1.147,0.512-1.62,0.512
								c-0.559,0-0.986-0.256-1.298-0.654l0.123-1.857c0.085-0.862,0.607-1.763,1.232-2.113l4.539-2.625
								c0.616-0.36,1.137-0.057,1.232,0.692L160.326,245.232z"/>
							<path style="fill:#FAFAFA;" d="M158.619,240.444c0,1.357-0.825,2.933-1.842,3.52c-1.018,0.587-1.842-0.036-1.842-1.393
								s0.825-2.933,1.842-3.52S158.619,239.087,158.619,240.444z"/>
						</g>
					</g>
					<g>
						<path style="fill:#E0E0E0;" d="M142.402,265.905c-0.163,0-0.323-0.085-0.41-0.237c-0.132-0.227-0.054-0.516,0.173-0.647
							L265.35,193.9c0.226-0.133,0.517-0.054,0.647,0.173c0.131,0.227,0.054,0.516-0.173,0.647l-123.185,71.122
							C142.564,265.885,142.482,265.905,142.402,265.905z"/>
					</g>
					<g>
						<path style="fill:#455A64;" d="M174.908,227.888l31.888-18.411c0.945-0.546,1.711-0.158,1.711,0.866
							c0,1.023-0.766,2.296-1.711,2.841l-31.888,18.411c-0.945,0.546-1.711,0.158-1.711-0.866S173.963,228.434,174.908,227.888z"/>
						<path style="fill:#E0E0E0;" d="M174.908,235.304l59.28-34.228c0.945-0.545,1.711-0.158,1.711,0.866
							c0,1.023-0.766,2.296-1.711,2.841l-59.28,34.228c-0.945,0.546-1.711,0.158-1.711-0.865
							C173.197,237.122,173.963,235.85,174.908,235.304z"/>
					</g>
					<g>
						<g>
							<path style="fill:#BA68C8;" d="M254.612,191.783c-1.843,1.064-3.343-0.069-3.343-2.527s1.5-5.323,3.343-6.387
								c1.843-1.064,3.343,0.069,3.343,2.527S256.456,190.719,254.612,191.783z"/>
						</g>
						<g>
							<path style="fill:#FFFFFF;" d="M253.793,187.065c-0.02-0.028-0.029-0.067-0.023-0.119c0.004-0.052,0.019-0.1,0.044-0.146
								l0.936-1.674c0.023-0.04,0.046-0.079,0.071-0.118c0.024-0.037,0.05-0.066,0.08-0.082l0.335-0.193
								c0.032-0.018,0.059-0.017,0.083,0.006c0.022,0.022,0.034,0.057,0.034,0.106v4.285c0,0.05-0.012,0.098-0.034,0.147
								c-0.024,0.049-0.051,0.082-0.083,0.101l-0.348,0.201c-0.032,0.018-0.059,0.017-0.083-0.006
								c-0.023-0.023-0.034-0.058-0.034-0.106v-3.278l-0.613,1.09c-0.025,0.046-0.054,0.075-0.083,0.085
								c-0.03,0.011-0.056,0.003-0.08-0.024L253.793,187.065z"/>
						</g>
					</g>
				</g>
				<g>
					<g>
						<g>
							<path style="fill:#BA68C8;" d="M156.733,278.351c-3.243,1.873-5.882-0.122-5.882-4.446c0-4.325,2.638-9.366,5.882-11.238
								c3.243-1.873,5.882,0.122,5.882,4.447S159.976,276.479,156.733,278.351z"/>
						</g>
						<g>
							<path style="fill:#FAFAFA;" d="M160.326,271.903c-0.948,2.398-2.556,4.211-4.299,5.215c-0.588,0.341-1.147,0.512-1.62,0.512
								c-0.559,0-0.986-0.256-1.298-0.654l0.123-1.858c0.085-0.862,0.607-1.763,1.232-2.113l4.539-2.625
								c0.616-0.36,1.137-0.057,1.232,0.692L160.326,271.903z"/>
							<path style="fill:#FAFAFA;" d="M158.619,267.115c0,1.357-0.825,2.933-1.842,3.52c-1.018,0.587-1.842-0.036-1.842-1.393
								c0-1.357,0.825-2.933,1.842-3.52C157.794,265.135,158.619,265.758,158.619,267.115z"/>
						</g>
					</g>
					<g>
						<path style="fill:#E0E0E0;" d="M142.402,292.576c-0.163,0-0.323-0.085-0.41-0.237c-0.132-0.227-0.054-0.516,0.173-0.647
							l123.185-71.122c0.226-0.132,0.517-0.054,0.647,0.173c0.131,0.227,0.054,0.516-0.173,0.647l-123.185,71.122
							C142.564,292.556,142.482,292.576,142.402,292.576z"/>
					</g>
					<g>
						<path style="fill:#455A64;" d="M174.908,254.559l31.888-18.411c0.945-0.546,1.711-0.158,1.711,0.866
							c0,1.023-0.766,2.296-1.711,2.841l-31.888,18.411c-0.945,0.546-1.711,0.158-1.711-0.866S173.963,255.105,174.908,254.559z"/>
						<path style="fill:#E0E0E0;" d="M174.908,261.975l59.28-34.228c0.945-0.546,1.711-0.158,1.711,0.866
							c0,1.023-0.766,2.296-1.711,2.841l-59.28,34.228c-0.945,0.546-1.711,0.158-1.711-0.866
							C173.197,263.792,173.963,262.52,174.908,261.975z"/>
					</g>
					<g>
						<g>
							<path style="fill:#BA68C8;" d="M254.612,218.454c-1.843,1.064-3.343-0.069-3.343-2.527s1.5-5.323,3.343-6.387
								c1.843-1.064,3.343,0.069,3.343,2.527S256.456,217.389,254.612,218.454z"/>
						</g>
						<g>
							<path style="fill:#FFFFFF;" d="M253.793,213.736c-0.02-0.028-0.029-0.067-0.023-0.118c0.004-0.052,0.019-0.1,0.044-0.146
								l0.936-1.674c0.023-0.04,0.046-0.079,0.071-0.117c0.024-0.037,0.05-0.066,0.08-0.082l0.335-0.193
								c0.032-0.019,0.059-0.017,0.083,0.005c0.022,0.022,0.034,0.058,0.034,0.105v4.285c0,0.05-0.012,0.098-0.034,0.147
								c-0.024,0.049-0.051,0.082-0.083,0.101l-0.348,0.201c-0.032,0.019-0.059,0.017-0.083-0.005
								c-0.023-0.023-0.034-0.058-0.034-0.107v-3.278l-0.613,1.09c-0.025,0.046-0.054,0.075-0.083,0.085
								c-0.03,0.011-0.056,0.003-0.08-0.024L253.793,213.736z"/>
						</g>
					</g>
				</g>
				<g>
					<g>
						<g>
							<path style="fill:#E0E0E0;" d="M156.733,305.022c-3.243,1.873-5.882-0.122-5.882-4.446c0-4.325,2.638-9.366,5.882-11.238
								c3.243-1.872,5.882,0.122,5.882,4.447C162.615,298.108,159.976,303.149,156.733,305.022z"/>
						</g>
						<g>
							<path style="fill:#FAFAFA;" d="M160.326,298.574c-0.948,2.398-2.556,4.21-4.299,5.215c-0.588,0.341-1.147,0.512-1.62,0.512
								c-0.559,0-0.986-0.256-1.298-0.654l0.123-1.857c0.085-0.862,0.607-1.763,1.232-2.113l4.539-2.625
								c0.616-0.36,1.137-0.057,1.232,0.692L160.326,298.574z"/>
							<path style="fill:#FAFAFA;" d="M158.619,293.785c0,1.357-0.825,2.933-1.842,3.52c-1.018,0.587-1.842-0.036-1.842-1.393
								c0-1.357,0.825-2.933,1.842-3.52C157.794,291.805,158.619,292.429,158.619,293.785z"/>
						</g>
					</g>
					<g>
						<path style="fill:#E0E0E0;" d="M142.402,319.247c-0.163,0-0.323-0.085-0.41-0.237c-0.132-0.227-0.054-0.516,0.173-0.647
							l123.185-71.122c0.226-0.132,0.517-0.054,0.647,0.173c0.131,0.227,0.054,0.516-0.173,0.647l-123.185,71.122
							C142.564,319.226,142.482,319.247,142.402,319.247z"/>
					</g>
					<g>
						<path style="fill:#455A64;" d="M174.908,281.23l31.888-18.411c0.945-0.546,1.711-0.158,1.711,0.866
							c0,1.023-0.766,2.296-1.711,2.841l-31.888,18.411c-0.945,0.546-1.711,0.158-1.711-0.866
							C173.197,283.047,173.963,281.775,174.908,281.23z"/>
						<path style="fill:#E0E0E0;" d="M174.908,288.645l59.28-34.228c0.945-0.546,1.711-0.158,1.711,0.866
							c0,1.023-0.766,2.296-1.711,2.841l-59.28,34.228c-0.945,0.546-1.711,0.158-1.711-0.866S173.963,289.191,174.908,288.645z"/>
					</g>
				</g>
				<g>
					<g>
						<g>
							<path style="fill:#E0E0E0;" d="M156.733,331.693c-3.243,1.872-5.882-0.122-5.882-4.446c0-4.325,2.638-9.366,5.882-11.238
								c3.243-1.872,5.882,0.122,5.882,4.447C162.615,324.779,159.976,329.82,156.733,331.693z"/>
						</g>
						<g>
							<path style="fill:#FAFAFA;" d="M160.326,325.245c-0.948,2.398-2.556,4.211-4.299,5.215c-0.588,0.341-1.147,0.512-1.62,0.512
								c-0.559,0-0.986-0.256-1.298-0.654l0.123-1.857c0.085-0.862,0.607-1.763,1.232-2.113l4.539-2.625
								c0.616-0.36,1.137-0.057,1.232,0.692L160.326,325.245z"/>
							<path style="fill:#FAFAFA;" d="M158.619,320.456c0,1.357-0.825,2.933-1.842,3.52s-1.842-0.036-1.842-1.393
								c0-1.357,0.825-2.933,1.842-3.52C157.794,318.476,158.619,319.1,158.619,320.456z"/>
						</g>
					</g>
					<g>
						<path style="fill:#E0E0E0;" d="M142.402,345.918c-0.163,0-0.323-0.085-0.41-0.237c-0.132-0.227-0.054-0.516,0.173-0.647
							l123.185-71.122c0.226-0.132,0.517-0.054,0.647,0.173c0.131,0.227,0.054,0.516-0.173,0.647l-123.185,71.123
							C142.564,345.898,142.482,345.918,142.402,345.918z"/>
					</g>
					<g>
						<path style="fill:#455A64;" d="M174.908,307.901l31.888-18.411c0.945-0.546,1.711-0.158,1.711,0.865
							c0,1.023-0.766,2.296-1.711,2.841l-31.888,18.411c-0.945,0.546-1.711,0.158-1.711-0.866
							C173.197,309.718,173.963,308.446,174.908,307.901z"/>
						<path style="fill:#E0E0E0;" d="M174.908,315.316l59.28-34.228c0.945-0.546,1.711-0.158,1.711,0.865
							c0,1.023-0.766,2.296-1.711,2.841l-59.28,34.228c-0.945,0.546-1.711,0.158-1.711-0.866
							C173.197,317.134,173.963,315.862,174.908,315.316z"/>
					</g>
				</g>
				<g>
					<g>
						<g>
							<path style="fill:#E0E0E0;" d="M156.733,358.363c-3.243,1.872-5.882-0.122-5.882-4.446c0-4.325,2.638-9.366,5.882-11.238
								c3.243-1.872,5.882,0.122,5.882,4.447C162.615,351.45,159.976,356.491,156.733,358.363z"/>
						</g>
						<g>
							<path style="fill:#FAFAFA;" d="M160.326,351.915c-0.948,2.398-2.556,4.211-4.299,5.215c-0.588,0.341-1.147,0.512-1.62,0.512
								c-0.559,0-0.986-0.256-1.298-0.654l0.123-1.858c0.085-0.862,0.607-1.763,1.232-2.113l4.539-2.625
								c0.616-0.36,1.137-0.057,1.232,0.692L160.326,351.915z"/>
							<path style="fill:#FAFAFA;" d="M158.619,347.127c0,1.357-0.825,2.933-1.842,3.52s-1.842-0.036-1.842-1.393
								c0-1.357,0.825-2.933,1.842-3.52C157.794,345.147,158.619,345.77,158.619,347.127z"/>
						</g>
					</g>
					<g>
						<path style="fill:#E0E0E0;" d="M142.402,372.589c-0.163,0-0.323-0.085-0.41-0.237c-0.132-0.227-0.054-0.516,0.173-0.647
							l123.185-71.122c0.226-0.131,0.517-0.055,0.647,0.173c0.131,0.227,0.054,0.516-0.173,0.647l-123.185,71.121
							C142.564,372.568,142.482,372.589,142.402,372.589z"/>
					</g>
					<g>
						<path style="fill:#455A64;" d="M174.908,334.571l31.888-18.411c0.945-0.546,1.711-0.158,1.711,0.866s-0.766,2.296-1.711,2.841
							l-31.888,18.411c-0.945,0.546-1.711,0.158-1.711-0.866C173.197,336.389,173.963,335.117,174.908,334.571z"/>
						<path style="fill:#E0E0E0;" d="M174.908,341.987l59.28-34.228c0.945-0.546,1.711-0.158,1.711,0.866
							c0,1.023-0.766,2.296-1.711,2.841l-59.28,34.228c-0.945,0.546-1.711,0.158-1.711-0.866S173.963,342.532,174.908,341.987z"/>
					</g>
				</g>
				<g>
					<g>
						<g>
							<path style="fill:#E0E0E0;" d="M156.733,385.034c-3.243,1.872-5.882-0.122-5.882-4.446c0-4.325,2.638-9.366,5.882-11.238
								c3.243-1.872,5.882,0.122,5.882,4.447C162.615,378.121,159.976,383.161,156.733,385.034z"/>
						</g>
						<g>
							<path style="fill:#FAFAFA;" d="M160.326,378.586c-0.948,2.398-2.556,4.211-4.299,5.215c-0.588,0.341-1.147,0.512-1.62,0.512
								c-0.559,0-0.986-0.256-1.298-0.654l0.123-1.857c0.085-0.862,0.607-1.763,1.232-2.113l4.539-2.625
								c0.616-0.36,1.137-0.057,1.232,0.692L160.326,378.586z"/>
							<path style="fill:#FAFAFA;" d="M158.619,373.798c0,1.357-0.825,2.933-1.842,3.52c-1.018,0.587-1.842-0.036-1.842-1.393
								c0-1.357,0.825-2.933,1.842-3.52C157.794,371.817,158.619,372.441,158.619,373.798z"/>
						</g>
					</g>
					<g>
						<path style="fill:#E0E0E0;" d="M142.402,399.259c-0.163,0-0.323-0.085-0.41-0.237c-0.132-0.227-0.054-0.516,0.173-0.647
							l123.185-71.122c0.226-0.131,0.517-0.055,0.647,0.173c0.131,0.227,0.054,0.516-0.173,0.647l-123.185,71.122
							C142.564,399.239,142.482,399.259,142.402,399.259z"/>
					</g>
					<g>
						<path style="fill:#455A64;" d="M174.908,361.242l31.888-18.411c0.945-0.546,1.711-0.158,1.711,0.866
							c0,1.023-0.766,2.296-1.711,2.841l-31.888,18.411c-0.945,0.546-1.711,0.158-1.711-0.866
							C173.197,363.06,173.963,361.788,174.908,361.242z"/>
						<path style="fill:#E0E0E0;" d="M174.908,368.658l59.28-34.228c0.945-0.546,1.711-0.158,1.711,0.865
							c0,1.024-0.766,2.296-1.711,2.841l-59.28,34.228c-0.945,0.546-1.711,0.158-1.711-0.866
							C173.197,370.475,173.963,369.203,174.908,368.658z"/>
					</g>
				</g>
				<g>
					<path style="fill:#E0E0E0;" d="M142.402,212.313c-0.163,0-0.323-0.085-0.41-0.237c-0.132-0.227-0.054-0.516,0.173-0.647
						l123.185-71.122c0.226-0.131,0.517-0.055,0.647,0.173c0.131,0.227,0.054,0.516-0.173,0.647l-123.185,71.122
						C142.564,212.292,142.482,212.313,142.402,212.313z"/>
				</g>
			</g>
		</g>
	</g>
</g>
<g id="Character">
	<g id="Character_5_">
		<g id="Bottom_1_">
			<g>
				<path style="fill:#C8856A;" d="M402.202,392.601c-0.939-12.914,0.512-22.811-0.563-42.975v0
					c-0.096-5.168-0.283-10.705-0.629-15.624c-1.166-16.549-3.717-22.207-3.954-25.401c0,0-0.437-25.749-1.519-61.961
					c-0.509-17.035-4.772-23.358-8.717-32.4l-49.402-0.547c-5.238,22.312-4.882,72.679-4.726,95.674
					c0.08,11.724,4.812,74.436,4.907,75.879c0.336,5.118-0.111,7.138-2.117,9.29c-4.201,4.507-10.29,8.798-15.554,12.727
					c0.762,2.013,7.093,1.94,10.227,0.407c5.006-2.448,9.976-6.184,11.684-7.449c4.325-3.202,9.852-5.77,9.923-10.643
					c0.012-0.607,0.176-0.774,0.145-0.87c0.082-2.845,6.714-44.796,7.265-54.531c0.475-8.37-0.544-22.574-0.544-22.574l5.401-35.456
					c0,0,3.329,20.956,6.697,35.266c2.741,11.648,6.381,31.523,9.467,45.858l-0.001,0c2.963,16.514,8.2,28.268,8.952,36.535
					c0.227,1.973,2.462,21.346,3.386,25.783c0.923,4.437,10.594,4.554,11.214-3.077
					C404.157,411.431,402.379,395.032,402.202,392.601z"/>
				<path id="XMLID_928_" style="fill:#AF6152;" d="M364.029,276.147l-3.948-25.577c0,0-15.264-1.812-20.815-7.145
					c0,0,7,9.877,17.356,11.487l4.353,21.202l-2.301,35.186L364.029,276.147z"/>
			</g>
			<g>
				<path style="fill:#263238;" d="M310.972,412.411c-0.267-0.003-0.703,2.943,0.737,4.212c1.663,1.465,6.563,3.895,13.081,3.123
					c6.518-0.772,10.064-2.748,12.692-4.9c2.628-2.152,6.311-5.187,9.263-5.805c2.741-0.574,5.725-1.781,6.609-2.617
					c0.884-0.836,0.803-4.596,0.803-4.596L310.972,412.411z"/>
				<path id="XMLID_942_" style="fill:#37474F;" d="M352.044,387.332c0,0,0.491,0.021,0.65,0.893
					c0.189,1.038,0.373,4.052,0.786,5.757c0.572,2.37,0.92,7.216,0.542,9.138c-0.379,1.922-4.852,3.212-7.713,4.267
					c-2.922,1.077-6.313,3.326-9.293,5.73c-3.085,2.489-9.547,4.95-13.79,4.967c-6.477,0.026-10.653-1.776-11.923-4.118
					c-1.571-2.897-0.297-4.552,7.182-7.921c1.416-0.637,6.396-3.513,8.094-4.557c1.794-1.103,3.516-2.332,5.105-3.715
					c0.804-0.7,1.574-1.44,2.296-2.224c0.636-0.69,1.53-1.524,1.911-2.387c0.086-0.196,0.147-0.425,0.225-0.628
					c0.224-0.586,0.379-1.128,0.504-1.739c0.127-0.617,0.212-1.518,0.804-1.883c0.68-0.419,1.899-0.352,2.664-0.286
					c0.962,0.083,1.927,0.216,2.866,0.437c1.093,0.257,2.359,0.369,2.997,1.404c0.489,0.794,0.555,1.79,0.584,2.703
					c0.014,0.434,0,0.872-0.001,1.307c0,0.185-0.083,0.518,0.178,0.444c0.248-0.071,0.531-0.717,0.628-0.937
					c0.212-0.484,0.349-1.003,0.58-1.479c0.264-0.544,0.562-1.102,0.943-1.566c0.356-0.433,0.744-0.847,1.191-1.187
					c0.406-0.309,0.922-0.46,1.283-0.812C351.793,388.495,352,387.7,352.044,387.332z"/>
				<path style="fill:#FAFAFA;" d="M317.278,406.602c9.37,0.746,12.26,6.568,12.62,10.156c-2.332,0.798-4.734,1.32-6.673,1.327
					c-6.477,0.026-10.919-1.777-12.189-4.118C309.553,411.234,310.603,409.053,317.278,406.602z"/>
				<g>
					<g>
						<path style="fill:#F0F0F0;" d="M331.332,406.848c0.102,0.001,0.205-0.031,0.291-0.1c0.198-0.158,0.229-0.446,0.071-0.644
							c-1.288-1.612-5.03-3.768-8.442-3.434c-0.253,0.024-0.437,0.249-0.412,0.5c0.024,0.251,0.242,0.435,0.5,0.411
							c3.185-0.303,6.617,1.816,7.639,3.095C331.068,406.787,331.199,406.846,331.332,406.848z"/>
					</g>
					<g>
						<path style="fill:#F0F0F0;" d="M335.396,404.538c0.102,0.001,0.205-0.031,0.291-0.1c0.198-0.158,0.229-0.446,0.071-0.644
							c-1.289-1.614-5.033-3.775-8.442-3.434c-0.253,0.024-0.437,0.249-0.412,0.5c0.024,0.251,0.238,0.435,0.5,0.411
							c3.184-0.307,6.617,1.815,7.638,3.094C335.132,404.478,335.263,404.537,335.396,404.538z"/>
					</g>
					<g>
						<path style="fill:#F0F0F0;" d="M339.165,401.891c0.102,0.001,0.205-0.031,0.291-0.101c0.198-0.158,0.229-0.446,0.071-0.644
							c-1.288-1.613-5.045-3.771-8.442-3.434c-0.252,0.024-0.437,0.249-0.412,0.5c0.024,0.251,0.239,0.434,0.5,0.412
							c3.18-0.305,6.617,1.816,7.638,3.094C338.902,401.831,339.032,401.89,339.165,401.891z"/>
					</g>
					<g>
						<path style="fill:#F0F0F0;" d="M342.86,399.243c0.1,0.001,0.201-0.03,0.286-0.096c0.201-0.155,0.236-0.443,0.081-0.642
							c-1.771-2.287-5.814-3.824-9.221-3.488c-0.252,0.024-0.437,0.249-0.412,0.5c0.024,0.251,0.241,0.429,0.5,0.412
							c3.068-0.3,6.838,1.111,8.41,3.138C342.592,399.181,342.726,399.242,342.86,399.243z"/>
					</g>
				</g>
			</g>
			<g>
				<path style="fill:#263238;" d="M389.492,423.046c0.257,4.423,0.945,7.354,2.514,9.948c1.569,2.594,4.529,3.408,7.527,2.649
					c2.998-0.76,6.838-2.79,7.697-6.605c0.859-3.815,1.36-6.43,0.679-10.531L389.492,423.046z"/>
				<path id="XMLID_930_" style="fill:#37474F;" d="M402.096,391.022c1.235,0.097,1.6,6.035,2.312,11.98
					c0.763,6.373,2.666,9.009,3.348,14.234c0.779,5.97-0.209,8.637-2.301,12.246c-2.091,3.61-9.496,7.15-13.145,1.981
					c-2.975-4.215-3.098-8.888-2.827-14.849c0.281-6.162-0.146-10.429-0.397-15.106c-0.241-4.47-1.23-8.977-0.157-9.474
					c0.082,0.657,0.163,1.489,0.25,2.134c0.108,0.793,0.111,1.626,0.399,2.383c0.126,0.332,0.401,0.681,0.514,0.14
					c0.076-0.367,0.04-0.746-0.001-1.112c-0.181-1.646,0.649-1.78,1.096-1.908c0.971-0.277,4.805-0.749,5.73-0.812
					c0.944-0.065,4.202-0.206,4.624,0.331c0.286,0.364,0.327,0.973,0.415,1.726c0.105,0.898,0.313,1.557,0.339,1.274
					c0.059-0.643-0.066-2.315-0.082-2.72c-0.015-0.387-0.079-0.915-0.084-1.304C402.125,391.786,402.121,391.404,402.096,391.022z"
					/>
				<path style="fill:#FAFAFA;" d="M408.098,420.695c0.213,3.707-0.673,6.246-2.31,9.071c-2.091,3.61-10.093,7.162-13.742,1.993
					c-1.816-2.572-2.302-5.613-2.552-8.716C391.681,419.059,404.648,417.303,408.098,420.695z"/>
				<g>
					<g>
						<path style="fill:#F0F0F0;" d="M392.189,416.553c0.052-0.006,0.102-0.019,0.152-0.042c0.05-0.023,5.765-2.387,11.329-1.1
							c0.246,0.053,0.491-0.097,0.55-0.344c0.057-0.246-0.098-0.493-0.344-0.549c-5.884-1.358-11.712,1.064-11.93,1.165
							c-0.228,0.111-0.325,0.383-0.216,0.612C391.815,416.473,392.002,416.571,392.189,416.553z"/>
					</g>
					<g>
						<path style="fill:#F0F0F0;" d="M403.394,410.962c0.173-0.018,0.329-0.133,0.389-0.308c0.08-0.24-0.047-0.501-0.287-0.582
							c-5.538-1.876-11.684,0.94-11.916,1.061c-0.225,0.117-0.311,0.393-0.193,0.618c0.118,0.223,0.398,0.305,0.618,0.193
							c0.052-0.026,6.042-2.756,11.195-1.003C403.264,410.962,403.33,410.968,403.394,410.962z"/>
					</g>
					<g>
						<path style="fill:#F0F0F0;" d="M403.199,406.766c0.17-0.017,0.323-0.13,0.385-0.301c0.085-0.24-0.038-0.501-0.276-0.586
							c-6.091-2.182-11.925,0.895-12.141,1.026c-0.216,0.132-0.285,0.413-0.154,0.629c0.132,0.217,0.419,0.286,0.629,0.154
							c0.048-0.03,5.686-2.976,11.356-0.947C403.065,406.765,403.133,406.773,403.199,406.766z"/>
					</g>
					<g>
						<path style="fill:#EBEBEB;" d="M402.896,402.636c0.167-0.017,0.32-0.126,0.383-0.294c0.089-0.237-0.031-0.501-0.268-0.59
							c-5.708-2.137-11.988,1.016-12.223,1.154c-0.22,0.125-0.294,0.405-0.168,0.625c0.125,0.22,0.405,0.299,0.625,0.168
							c0.055-0.031,6.144-3.076,11.444-1.09C402.758,402.634,402.828,402.643,402.896,402.636z"/>
					</g>
				</g>
			</g>
		</g>
		<g>
			<g>
				<g>
					<path style="fill:#C8856A;" d="M351.41,163.417c-9.931,1.713-12.3,2.446-16.716,9.1c-4.526,6.821-10.443,15.194-17.255,25.648
						l-17.851-8.339l-7.159,12.44c0,0,19.197,12.337,26.294,14.735c5.309,1.793,6.557-0.541,10.483-4.639
						c4.366-4.558,17.196-19.44,17.196-19.44L351.41,163.417z"/>
				</g>
				<path style="fill:#AF6152;" d="M317.439,198.165c3.016,1.021,6.224,3.896,6.777,5.61c-1.734-5.277-4.468-6.238-5.911-6.935
					L317.439,198.165z"/>
				<g>
					<g id="XMLID_899_">
						<g id="XMLID_900_">
							<g id="XMLID_904_">
								<path id="XMLID_924_" style="fill:#455A64;" d="M277.276,169.82l-0.025,0.004l1.221-1.14l0.001,0.016
									c0.276-0.241,0.716-0.33,1.294-0.197l13.842,3.177c1.283,0.295,2.712,1.527,3.192,2.753l10.99,28.037
									c0.255,0.65,0.184,1.161-0.124,1.46l0.011,0.003l-1.259,1.175v-0.016c-0.274,0.249-0.72,0.341-1.306,0.207l-13.842-3.177
									c-1.283-0.294-2.712-1.527-3.192-2.752c-2.159-5.511-8.832-22.528-10.99-28.038
									C276.819,170.64,276.918,170.108,277.276,169.82z"/>
								<path id="XMLID_921_" style="fill:#263238;" d="M293.907,173.552c0.736,0.535,1.38,1.286,1.672,2.026l10.993,28.028
									c0.238,0.629,0.196,1.132-0.081,1.431l1.184-1.1l-0.013-0.012c0.314-0.301,0.382-0.805,0.13-1.459l-10.993-28.04
									c-0.266-0.691-0.857-1.382-1.543-1.918L293.907,173.552z"/>
								<path id="XMLID_920_" style="fill:#37474F;" d="M306.567,203.611l-10.99-28.037c-0.48-1.225-1.909-2.458-3.192-2.752
									l-13.842-3.177c-1.283-0.295-1.934,0.46-1.454,1.686c2.158,5.51,8.832,22.527,10.99,28.037
									c0.48,1.226,1.909,2.458,3.192,2.753l13.842,3.177C306.396,205.592,307.047,204.837,306.567,203.611z"/>
							</g>
						</g>
					</g>
					<path id="XMLID_897_" style="fill:#455A64;" d="M295.798,181.538l-2.057-5.247c-0.09-0.229-0.357-0.46-0.598-0.515
						l-2.591-0.595c-0.24-0.055-0.362,0.086-0.272,0.315c0.404,1.031,1.653,4.216,2.057,5.248c0.09,0.229,0.357,0.46,0.597,0.515
						l2.591,0.594C295.766,181.909,295.887,181.768,295.798,181.538z"/>
					<path id="XMLID_895_" style="fill:#263238;" d="M293.666,177.568c-0.219-0.558-0.9-1.126-1.52-1.268
						c-0.62-0.142-0.946,0.195-0.726,0.753c0.22,0.558,0.9,1.126,1.52,1.269C293.56,178.464,293.885,178.126,293.666,177.568z"/>
					<path id="XMLID_894_" style="fill:#263238;" d="M294.67,180.217c-0.219-0.558-0.9-1.126-1.52-1.269
						c-0.62-0.142-0.946,0.195-0.726,0.753c0.22,0.558,0.9,1.126,1.52,1.269C294.564,181.112,294.889,180.775,294.67,180.217z"/>
				</g>
				<g>
					<path style="fill:#C8856A;" d="M280.441,186.988c-1.629-1.819-1.527-2.096-0.873-3.187c0.655-1.092,2.185-2.938,4.774-3.144
						c1.741-0.138,3.49-0.364,4.436,0c0.946,0.364,0.39,2.33-1.816,3.085c-3.476,1.189-3.348,2.155-3.348,2.155
						s3.202-1.092,4.512-1.31c1.31-0.218,3.784,0.146,5.312,0.218c1.528,0.073,2.038,1.979-0.437,2.925c0,0,1.93,0.096,2.802,0.139
						c1.961,0.097,2.729,1.051,1.346,2.41c-0.329,0.323-0.792,0.705-1.673,0.846c0,0,2.053-0.227,2.17,0.451
						c0.336,1.944-0.877,2.596-4.894,4.255c-3.83,1.582-4.411,3.801-3.465,5.183c0,0-1.695-0.753-3.221-1.578
						c-1.118-0.604-2.087-1.315-1.796-2.989c0,0-2.256,0.291-2.547-1.092c-0.291-1.383,0.218-3.056,0.218-3.056
						s-1.399-0.509-1.5-2.183c-0.101-1.674,0.554-2.547,0.554-2.547L280.441,186.988z"/>
					<path style="fill:#AF6152;" d="M293.002,187.73c-0.844-0.034-1.643-0.131-2.529,0.003c-0.903,0.181-1.618,0.639-2.338,1.033
						c-1.426,0.841-2.826,1.731-4.107,2.812c1.577-0.581,3.035-1.352,4.467-2.173c0.714-0.412,1.409-0.875,2.112-1.117
						C291.342,188.082,292.207,187.973,293.002,187.73z"/>
					<path style="fill:#AF6152;" d="M295.477,191.126c-0.886-0.162-1.845-0.077-2.715,0.214c-0.878,0.271-1.694,0.674-2.487,1.095
						c-1.571,0.871-3.071,1.849-4.435,3.035c1.668-0.691,3.227-1.549,4.786-2.39C292.188,192.24,293.678,191.358,295.477,191.126z"
						/>
				</g>
			</g>
			<g>
				<path style="fill:#37474F;" d="M396.977,237.422c-1.721-14.155-8.352-21.621-8.868-26.374
					c-0.852-7.841,2.308-18.383,3.079-23.543c1.68-11.236-1.54-20.653-4.156-22.866c0,0-2.97-0.736-5.464-1.185
					c-1.977-0.355-3.499-0.587-6.107-1.22c-6.487-1.574-13.583-0.025-16.055,0.226c-1.219,0.124-2.863-0.152-5.068,0.362
					c-1.747,0.408-5.815,1.107-5.822,1.111c0,0-3.38,3.401-7.831,9.359c-3.494,4.677-6.973,8.975-7.665,17.36
					c-0.3,3.641-0.466,16.415-0.895,30.335c-0.884,28.719-2.421,66.337-2.421,66.337c6.357,4.759,14.757,9.047,32.72,8.769
					c19.95-0.309,32.602-3.064,40.256-10.217C402.681,285.878,399.909,261.546,396.977,237.422z"/>
			</g>
			<g>
				<g>
					<path style="fill:#37474F;" d="M342.717,117.028c7.095-8.773,16.616-10.682,25.493-8.606
						c5.258,1.229,10.735,4.335,12.269,9.886c4.374,0,7.32,4.648,7.844,13.038c0.524,8.39,1.422,21.22-1.291,25.465
						c-1.907,2.984-4.702,3.726-5.503,3.766c2.371-1.889,2.77-3.538,3.039-4.604c0,0-1.389,2.477-5.237,4.37
						c-3.232,1.59-6.063,2.271-11.043,2.439c-6.036,0.204-11.982-0.653-14.797-1.898c2.553-1.179,3.208-3.274,3.208-3.274
						s-2.684,3.405-8.315,1.637c2.488-0.524,3.898-3.525,3.946-8.637c0.015-1.59,0.021-5.316,0.021-9.694
						c-3.066-1.386-6.26-1.981-8.068-5.435c-1.325-2.531-1.502-5.568-0.827-8.343c-1.349,1.09-2.163,2.813-2.15,4.548
						C338.758,127.157,339.45,121.068,342.717,117.028z"/>
				</g>
				<g>
					<path style="fill:#C8856A;" d="M375.421,159.417c0-1.841,0.353-11.076,0.353-11.076c0.071,0.688,3.406,2.598,6.432-0.93
						c3.106-3.622,3.267-7.315,1.49-9.74c-1.964-2.681-6.38-2.573-8.18,1.764c-2.891,0.653-4.171-3.764-1.93-7.959
						c-0.153-5.383-5.674-5.141-8.394-12.102c-6.957,3.591-13.375,0.663-17.825,5.868c-0.919,2.605-1.652,6.692-1.724,13.985
						c-0.117,11.908,2.182,14.757,5.407,16.228c1.924,0.878,4.292,1.129,7.966,0.856l-0.2,3.076l0,0
						c-0.083,1.541,0.049,2.203-1.455,2.691c-1.009,0.327-3.024,0.748-3.024,0.748s-4.37,4.078,5.165,5.441
						c14.237,2.035,22.064-4.809,22.064-4.809s-0.967-0.164-3.397-0.619C375.665,162.368,375.421,161.258,375.421,159.417z"/>
					<path style="fill:#FFFFFF;" d="M379.91,146.209c-0.027,0.797-0.694,1.421-1.491,1.395c-0.797-0.027-1.421-0.694-1.394-1.491
						c0.027-0.797,0.694-1.421,1.491-1.394C379.312,144.745,379.936,145.412,379.91,146.209z"/>
					<g>
						<g id="XMLID_10862_">
							<path id="XMLID_10863_" style="fill:#AF6152;" d="M362.737,145.217l-5.165,1.598c0.415,1.477,1.907,2.318,3.333,1.877
								C362.332,148.25,363.152,146.695,362.737,145.217z"/>
							<path style="fill:#FFA8A7;" d="M362.399,146.404c-1.442-0.048-2.677,0.939-2.994,2.292c0.474,0.14,0.99,0.152,1.5-0.005
								c1.024-0.316,1.726-1.209,1.893-2.233C362.666,146.436,362.536,146.409,362.399,146.404z"/>
						</g>
						<path id="XMLID_10861_" style="fill:#37474F;" d="M347.835,129.62l4.134-0.413c-0.072-1.155-1.056-1.999-2.198-1.884
							C348.631,127.437,347.763,128.466,347.835,129.62z"/>
						<path id="XMLID_10859_" style="fill:#37474F;" d="M367.414,130.042l-4.121-0.85c0.193-1.156,1.273-1.903,2.411-1.668
							C366.842,127.76,367.608,128.887,367.414,130.042z"/>
						<path id="XMLID_10852_" style="fill:#263238;" d="M352.46,134.859c0.064,0.945-0.657,1.783-1.612,1.874
							c-0.954,0.091-1.78-0.602-1.844-1.546c-0.065-0.945,0.658-1.784,1.611-1.874C351.57,133.223,352.396,133.915,352.46,134.859z"
							/>
						<path id="XMLID_10850_" style="fill:#263238;" d="M365.009,135.276c0.064,0.944-0.657,1.783-1.612,1.874
							c-0.954,0.091-1.78-0.602-1.844-1.546c-0.065-0.945,0.657-1.783,1.611-1.874C364.119,133.639,364.946,134.331,365.009,135.276
							z"/>
					</g>
					<polygon style="fill:#AF6152;" points="351.258,140.53 356.711,143.188 357.919,132.65 					"/>
					<g id="XMLID_10854_">
						<path id="XMLID_10855_" style="fill:#AF6152;" d="M359.016,156.308c6.591-0.607,12.912-2.708,14.417-5.698
							c0,0-0.005,3.278-2.69,4.824c-3.764,2.167-11.879,3.202-11.879,3.202L359.016,156.308z"/>
					</g>
				</g>
			</g>
			<g>
				<path style="fill:#AF6152;" d="M355.009,188.637c-3.236-2.413-4.866-3.345-6.374-3.772c-1.508-0.427-6.801-2.629-8.83-3.134
					c-1.287-0.32-1.808,1.726-0.169,3.134c1.262,1.084,4.543,2.505,5.982,3.294c1.439,0.788,4.266,4.221,4.266,4.221
					L355.009,188.637z"/>
				<path style="fill:#C8856A;" d="M400.477,172.901c-3.208-6.836-5.944-7.495-13.706-8.395c-7.303,7.121-1.378,23.053-1.378,23.053
					l3.912,19.193c0,0-19.344-5.203-21.532-6.602c-2.189-1.399-8.061-7.713-10.031-9.604c-2.681-2.573-4.011-2.228-5.373-2.023
					c-4.462,0.67-5.44,1.045-6.385,1.645c-0.944,0.6-0.867,1.737-0.867,1.737c-1.185,0.148-2.958,0.111-3.186,2.058
					c-0.151,1.285-0.071,1.559-0.071,1.559s-0.426,0.043-0.77,0.442c-0.986,1.142,0.705,5.095,1.779,6.059
					c0.754,0.677,1.829,0.761,3.241,0.57c1.2-0.163,0.642-1.384,0.642-1.384l1.679,0.1c3.629,2.577,3.812,7.685,8.609,8.81
					c1.013,0.238,3.095,0.209,5.859,1.137c10.329,3.468,27.259,13.985,36.462,14.776c8.983,0.772,8.725-4.013,8.865-9.515
					C408.35,211.607,403.676,179.718,400.477,172.901z"/>
				<path style="fill:#AF6152;" d="M388.921,204.87l0.383,1.881c4.089,1.052,8.507,3.997,9.489,6.234
					C398.03,209.44,396.119,206.79,388.921,204.87z"/>
				<g>
					<path style="fill:#AF6152;" d="M345.116,191.904l5.298-1.07l-5.188,0.336C345.146,191.419,345.107,191.664,345.116,191.904z"/>
					<path style="fill:#AF6152;" d="M341.859,195.521l6.098-0.791l-6.105,0.084C341.826,195.034,341.833,195.272,341.859,195.521z"
						/>
					<path style="fill:#AF6152;" d="M342.663,198.207c0.185,0.314,0.493,0.551,0.821,0.712c0.328,0.172,0.678,0.279,1.043,0.356
						l-0.081-0.058c0.163,0.319,0.336,0.632,0.513,0.943l0.126-0.163c-0.355-0.064-0.701,0.034-0.97,0.238
						c-0.269,0.203-0.433,0.499-0.531,0.797c0.156-0.275,0.374-0.506,0.621-0.665c0.252-0.144,0.562-0.206,0.826-0.151l0.235,0.048
						l-0.109-0.211c-0.164-0.318-0.332-0.634-0.511-0.945l-0.028-0.049l-0.053-0.009c-0.341-0.059-0.684-0.16-1.013-0.281
						C343.228,198.636,342.904,198.48,342.663,198.207z"/>
					<path style="fill:#AF6152;" d="M344.283,198.992c0.607,0.126,2.207,0.155,2.207,0.155s0.047,0.435,0.758,1.172
						c0.381,0.394,1.182,0.988,1.182,0.988l-1.679-0.1c0,0-0.409-0.75-1.921-1.039L344.283,198.992z"/>
				</g>
			</g>
		</g>
	</g>
</g>
<g id="Speech_bubbles">
	<g id="Speech_Bubbles">
		<g id="XMLID_5754_">
			<g id="XMLID_5758_">
				<g id="XMLID_5805_">
					<path id="XMLID_5806_" style="fill:#263238;" d="M370.719,94.158l-5.451-3.149c-0.108-0.049-0.197-0.118-0.256-0.226
						l-1.004-1.752l3.237-1.869l-0.098,0.285L370.719,94.158z"/>
				</g>
				<path id="XMLID_5775_" style="fill:#37474F;" d="M366.752,87.428l3.773,6.535c0.241,0.418,0.862,0.359,1.019-0.097l3.987-11.51
					L366.752,87.428z"/>
				<path id="XMLID_5769_" style="fill:#37474F;" d="M384.548,52.57c0-1.681-1.18-3.725-2.636-4.566l-0.576-0.348
					c-1.456-0.841-3.816-0.841-5.272,0l-42.689,24.623c-1.456,0.841-2.636,2.885-2.636,4.566v21.618
					c0,1.682,1.181,3.726,2.636,4.566l0.576,0.348c1.456,0.841,3.817,0.841,5.273,0l42.935-24.802c2.369-1.35,2.39-2.706,2.39-4.387
					L384.548,52.57z"/>
				<path id="XMLID_5768_" style="fill:#263238;" d="M330.738,98.464c0,1.682,1.18,3.726,2.636,4.566l0.576,0.348
					c1.316,0.76,3.364,0.835,4.822,0.221c-1.241,0.469-2.186-0.239-2.186-1.743l0-21.618c0-0.841,0.295-1.772,0.772-2.598
					l-5.849-3.392c-0.477,0.826-0.772,1.757-0.772,2.598V98.464z"/>
				<path id="XMLID_5759_" style="fill:#455A64;" d="M384.461,51.821c-0.307-1.119-1.328-1.476-2.546-0.775l-42.695,24.628
					c-0.725,0.418-1.39,1.132-1.857,1.968l-5.846-3.389c0.48-0.836,1.131-1.55,1.857-1.968l42.682-24.628
					c1.464-0.836,3.825-0.836,5.276,0l0.582,0.351C383.158,48.722,384.203,50.321,384.461,51.821z"/>
			</g>
			<path style="fill:#BA68C8;" d="M343.671,84.688l30.493-17.69c0.883-0.509,1.598-1.568,1.598-2.365
				c0-0.797-0.715-1.029-1.598-0.52l-30.493,17.69c-0.882,0.509-1.598,1.568-1.598,2.365
				C342.073,84.964,342.789,85.197,343.671,84.688z M374.164,71.359l-30.493,17.685c-0.882,0.509-1.598,1.568-1.598,2.365
				c0,0.797,0.715,1.029,1.598,0.52l30.493-17.684c0.883-0.51,1.598-1.568,1.598-2.365C375.762,71.083,375.047,70.85,374.164,71.359
				z"/>
			<path style="opacity:0.4;fill:#FFFFFF;" d="M343.671,84.688l30.493-17.69c0.883-0.509,1.598-1.568,1.598-2.365
				c0-0.797-0.715-1.029-1.598-0.52l-30.493,17.69c-0.882,0.509-1.598,1.568-1.598,2.365
				C342.073,84.964,342.789,85.197,343.671,84.688z M374.164,71.359l-30.493,17.685c-0.882,0.509-1.598,1.568-1.598,2.365
				c0,0.797,0.715,1.029,1.598,0.52l30.493-17.684c0.883-0.51,1.598-1.568,1.598-2.365C375.762,71.083,375.047,70.85,374.164,71.359
				z"/>
		</g>
		<g id="XMLID_5807_">
			<g id="XMLID_5812_">
				<g id="XMLID_5817_">
					<path id="XMLID_5851_" style="fill:#BA68C8;" d="M301.72,91.165l-5.451-3.149c-0.108-0.049-0.197-0.118-0.256-0.226
						l-1.004-1.751l3.237-1.87l-0.098,0.285L301.72,91.165z"/>
					<path id="XMLID_5850_" style="opacity:0.1;" d="M301.72,91.165l-5.451-3.149c-0.108-0.049-0.197-0.118-0.256-0.226
						l-1.004-1.751l3.237-1.87l-0.098,0.285L301.72,91.165z"/>
				</g>
				<path id="XMLID_5816_" style="fill:#BA68C8;" d="M297.753,84.436l3.773,6.535c0.241,0.418,0.862,0.358,1.019-0.097l3.987-11.51
					L297.753,84.436z"/>
				<path id="XMLID_926_" style="opacity:0.2;fill:#FFFFFF;" d="M297.753,84.436l3.773,6.535c0.241,0.418,0.862,0.358,1.019-0.097
					l3.987-11.51L297.753,84.436z"/>
				<path id="XMLID_5815_" style="fill:#BA68C8;" d="M342.5,30.685c0-1.681-1.18-3.725-2.636-4.566l-0.576-0.348
					c-1.456-0.841-3.816-0.841-5.272,0l-50.68,29.272c-1.456,0.841-2.636,2.885-2.636,4.566v24.875c0,1.681,1.181,3.726,2.636,4.566
					l0.576,0.348c1.456,0.841,3.817,0.841,5.273,0l50.926-29.451c2.368-1.35,2.39-2.706,2.39-4.387L342.5,30.685z"/>
				<path id="XMLID_925_" style="opacity:0.2;fill:#FFFFFF;" d="M342.5,30.685c0-1.681-1.18-3.725-2.636-4.566l-0.576-0.348
					c-1.456-0.841-3.816-0.841-5.272,0l-50.68,29.272c-1.456,0.841-2.636,2.885-2.636,4.566v24.875c0,1.681,1.181,3.726,2.636,4.566
					l0.576,0.348c1.456,0.841,3.817,0.841,5.273,0l50.926-29.451c2.368-1.35,2.39-2.706,2.39-4.387L342.5,30.685z"/>
				<path id="XMLID_5814_" style="fill:#BA68C8;" d="M280.699,84.485c0,1.681,1.18,3.726,2.636,4.566l0.576,0.348
					c1.316,0.76,3.364,0.835,4.822,0.221c-1.241,0.469-2.186-0.239-2.186-1.743l0-24.875c0-0.841,0.295-1.772,0.772-2.598
					l-5.849-3.392c-0.477,0.826-0.772,1.757-0.772,2.598V84.485z"/>
				<path id="XMLID_5813_" style="opacity:0.4;fill:#FFFFFF;" d="M342.414,29.936c-0.308-1.119-1.328-1.476-2.546-0.775
					l-50.686,29.277c-0.725,0.418-1.39,1.131-1.857,1.968l-5.846-3.389c0.479-0.836,1.131-1.55,1.857-1.968l50.674-29.277
					c1.464-0.836,3.825-0.836,5.276,0l0.582,0.351C341.111,26.837,342.156,28.436,342.414,29.936z"/>
			</g>
			<g id="XMLID_5808_">
				<path id="XMLID_5811_" style="fill:#FFFFFF;" d="M293.632,69.986l27.404-15.873c0.882-0.509,1.598-0.277,1.598,0.52
					c0,0.796-0.715,1.855-1.598,2.365L293.632,72.87c-0.882,0.509-1.598,0.277-1.598-0.52
					C292.035,71.554,292.75,70.495,293.632,69.986z"/>
				<path id="XMLID_5810_" style="fill:#FFFFFF;" d="M293.632,77.226l38.485-22.334c0.882-0.509,1.598-0.277,1.598,0.52
					c0,0.797-0.715,1.855-1.598,2.365l-38.485,22.333c-0.882,0.509-1.598,0.277-1.598-0.52
					C292.035,78.795,292.75,77.736,293.632,77.226z"/>
				<path id="XMLID_5809_" style="fill:#FFFFFF;" d="M293.632,62.385l38.485-22.334c0.882-0.509,1.598-0.277,1.598,0.52
					c0,0.796-0.715,1.855-1.598,2.365l-38.485,22.333c-0.882,0.509-1.598,0.277-1.598-0.52
					C292.035,63.953,292.75,62.895,293.632,62.385z"/>
			</g>
		</g>
	</g>
</g>
</svg>
